solid qi_holder
facet normal 1.0 0.0 0.0
  outer loop
    vertex 23.898754098463023 20.161007898388505 4.677209199110816
    vertex 23.898754098463023 10.161008141618007 21.000001015257155
    vertex 23.898754098463023 10.161007898388567 4.677209348122977
  endloop
endfacet
facet normal 1.0 0.0 0.0
  outer loop
    vertex 23.898754098463023 10.161008141618007 21.000001015257155
    vertex 23.898754098463023 20.161007898388505 4.677209199110816
    vertex 23.898754098463023 20.161008141617945 21.000000866245003
  endloop
endfacet
facet normal -6.918803625383842e-31 -1.0 1.490121612132029e-08
  outer loop
    vertex 74.89875409846304 71.1948326151407 4.677208438644758
    vertex 68.89875409846292 71.19483385675159 88.00000010577895
    vertex 68.89875409846296 71.1948326151407 4.6772084386447474
  endloop
endfacet
facet normal -6.918803625383842e-31 -1.0 1.490121612132029e-08
  outer loop
    vertex 68.89875409846292 71.19483385675159 88.00000010577895
    vertex 74.89875409846304 71.1948326151407 4.677208438644758
    vertex 74.898754098463 71.19483385675159 88.00000010577895
  endloop
endfacet
facet normal 1.0 0.0 0.0
  outer loop
    vertex 84.898754098463 146.42557669861924 -1.0152537291752139e-06
    vertex 84.898754098463 10.161007898388657 4.677209348122943
    vertex 84.898754098463 10.161007828692576 1.0152540562913258e-06
  endloop
endfacet
facet normal 1.0 0.0 0.0
  outer loop
    vertex 84.898754098463 10.161007898388657 4.677209348122943
    vertex 84.898754098463 146.42557669861924 -1.0152537291752139e-06
    vertex 84.898754098463 146.4255767683153 4.677207317615214
  endloop
endfacet
facet normal 1.0 -4.586738664965199e-24 -3.0780969775540256e-16
  outer loop
    vertex 23.898754098463023 129.69483261514048 4.677207566923624
    vertex 23.898754098463023 119.19483285836998 20.999999390520674
    vertex 23.898754098463023 119.19483261514053 4.677207723386395
  endloop
endfacet
facet normal 1.0 -4.586738664965199e-24 -3.0780969775540256e-16
  outer loop
    vertex 23.898754098463023 119.19483285836998 20.999999390520674
    vertex 23.898754098463023 129.69483261514048 4.677207566923624
    vertex 23.898754098463023 129.69483285836992 20.99999923405789
  endloop
endfacet
facet normal 1.676166310634359e-31 1.0 -1.490121585244258e-08
  outer loop
    vertex 68.89875409846292 82.9951642527794 87.99999992993969
    vertex 74.89875409846304 82.99516301116853 4.6772082628055
    vertex 68.89875409846296 82.99516301116853 4.6772082628055
  endloop
endfacet
facet normal 1.676166310634359e-31 1.0 -1.490121585244258e-08
  outer loop
    vertex 74.89875409846304 82.99516301116853 4.6772082628055
    vertex 68.89875409846292 82.9951642527794 87.99999992993969
    vertex 74.898754098463 82.9951642527794 87.99999992993969
  endloop
endfacet
facet normal 1.6829543681186754e-16 -1.490121571650711e-08 -1.0
  outer loop
    vertex 22.898754098472544 146.42557669861924 -1.0152537742946775e-06
    vertex 18.898754098463073 10.161007828692576 1.0152540562913258e-06
    vertex 18.898754098463073 146.42557669861924 -1.0152537291752139e-06
  endloop
endfacet
facet normal 1.6829543681186754e-16 -1.490121571650711e-08 -1.0
  outer loop
    vertex 18.898754098463073 10.161007828692576 1.0152540562913258e-06
    vertex 22.898754098472544 146.42557669861924 -1.0152537742946775e-06
    vertex 84.898754098463 10.161007828692576 1.0152540562913258e-06
  endloop
endfacet
facet normal 1.6829543681186754e-16 -1.490121571650711e-08 -1.0
  outer loop
    vertex 84.898754098463 10.161007828692576 1.0152540562913258e-06
    vertex 22.898754098472544 146.42557669861924 -1.0152537742946775e-06
    vertex 84.898754098463 146.42557669861924 -1.0152537291752139e-06
  endloop
endfacet
facet normal -1.6009973985282173e-23 1.0 -1.490121579645909e-08
  outer loop
    vertex 18.898754098463076 20.161008141617945 21.000000866245013
    vertex 23.898754098463023 20.161007898388505 4.677209199110816
    vertex 18.898754098463076 20.161007898388505 4.677209199110816
  endloop
endfacet
facet normal -1.6009973985282173e-23 1.0 -1.490121579645909e-08
  outer loop
    vertex 23.898754098463023 20.161007898388505 4.677209199110816
    vertex 18.898754098463076 20.161008141617945 21.000000866245013
    vertex 23.898754098463023 20.161008141617945 21.000000866245003
  endloop
endfacet
facet normal 0.0 1.0 -1.4901215583564876e-08
  outer loop
    vertex 18.898754098463073 146.42557669861924 -1.0152537291752139e-06
    vertex 84.898754098463 146.42557669861924 -1.0152537291752139e-06
    vertex 22.898754098472544 146.42557669861924 -1.0152537742946775e-06
  endloop
endfacet
facet normal 0.0 1.0 -1.4901215583564876e-08
  outer loop
    vertex 84.898754098463 146.42557669861924 -1.0152537291752139e-06
    vertex 18.898754098463073 146.42557669861924 -1.0152537291752139e-06
    vertex 18.89875409846312 146.4255767683153 4.677207317615204
  endloop
endfacet
facet normal 0.0 1.0 -1.4901215583564876e-08
  outer loop
    vertex 84.898754098463 146.42557669861924 -1.0152537291752139e-06
    vertex 18.89875409846312 146.4255767683153 4.677207317615204
    vertex 84.898754098463 146.4255767683153 4.677207317615214
  endloop
endfacet
facet normal 0.0 -1.0 1.4901215583564876e-08
  outer loop
    vertex 23.898754098463023 119.19483285836998 20.999999390520674
    vertex 18.898754098463073 119.19483261514053 4.677207723386395
    vertex 23.898754098463023 119.19483261514053 4.677207723386395
  endloop
endfacet
facet normal 0.0 -1.0 1.4901215583564876e-08
  outer loop
    vertex 18.898754098463073 119.19483261514053 4.677207723386395
    vertex 23.898754098463023 119.19483285836998 20.999999390520674
    vertex 18.898754098463073 119.19483285836998 20.999999390520674
  endloop
endfacet
facet normal 1.0 7.879898029455588e-24 5.288090419824614e-16
  outer loop
    vertex 74.89875409846304 82.99516301116853 4.6772082628055
    vertex 74.898754098463 71.19483385675159 88.00000010577895
    vertex 74.89875409846304 71.1948326151407 4.677208438644758
  endloop
endfacet
facet normal 1.0 7.879898029455588e-24 5.288090419824614e-16
  outer loop
    vertex 74.898754098463 71.19483385675159 88.00000010577895
    vertex 74.89875409846304 82.99516301116853 4.6772082628055
    vertex 74.898754098463 82.9951642527794 87.99999992993969
  endloop
endfacet
facet normal 8.169966930053704e-16 -1.0 1.4901213126034685e-08
  outer loop
    vertex 84.898754098463 10.161007898388657 4.677209348122943
    vertex 18.898754098463073 10.161007828692576 1.0152540562913258e-06
    vertex 84.898754098463 10.161007828692576 1.0152540562913258e-06
  endloop
endfacet
facet normal 8.169966930053704e-16 -1.0 1.4901213126034685e-08
  outer loop
    vertex 18.898754098463073 10.161007828692576 1.0152540562913258e-06
    vertex 84.898754098463 10.161007898388657 4.677209348122943
    vertex 23.898754098463023 10.161007898388567 4.677209348122977
  endloop
endfacet
facet normal 8.169966930053704e-16 -1.0 1.4901213126034685e-08
  outer loop
    vertex 18.898754098463073 10.161007828692576 1.0152540562913258e-06
    vertex 23.898754098463023 10.161007898388567 4.677209348122977
    vertex 18.898754098463076 10.161008141618007 21.000001015257176
  endloop
endfacet
facet normal 8.169966930053704e-16 -1.0 1.4901213126034685e-08
  outer loop
    vertex 18.898754098463076 10.161008141618007 21.000001015257176
    vertex 23.898754098463023 10.161007898388567 4.677209348122977
    vertex 23.898754098463023 10.161008141618007 21.000001015257155
  endloop
endfacet
facet normal 0.0 1.0 -1.4901215583564876e-08
  outer loop
    vertex 18.898754098463073 129.69483285836992 20.99999923405789
    vertex 23.898754098463023 129.69483261514048 4.677207566923624
    vertex 18.898754098463073 129.69483261514048 4.677207566923624
  endloop
endfacet
facet normal 0.0 1.0 -1.4901215583564876e-08
  outer loop
    vertex 23.898754098463023 129.69483261514048 4.677207566923624
    vertex 18.898754098463073 129.69483285836992 20.99999923405789
    vertex 23.898754098463023 129.69483285836992 20.99999923405789
  endloop
endfacet
facet normal 8.242627317510478e-17 1.4901215953259476e-08 1.0
  outer loop
    vertex 84.898754098463 10.161007898388657 4.677209348122943
    vertex 23.898754098463023 20.161007898388505 4.677209199110816
    vertex 23.898754098463023 10.161007898388567 4.677209348122977
  endloop
endfacet
facet normal 8.242627317510478e-17 1.4901215953259476e-08 1.0
  outer loop
    vertex 23.898754098463023 20.161007898388505 4.677209199110816
    vertex 84.898754098463 10.161007898388657 4.677209348122943
    vertex 23.898754098463023 119.19483261514053 4.677207723386395
  endloop
endfacet
facet normal 8.242627317510478e-17 1.4901215953259476e-08 1.0
  outer loop
    vertex 23.898754098463023 119.19483261514053 4.677207723386395
    vertex 84.898754098463 10.161007898388657 4.677209348122943
    vertex 23.898754098463023 129.69483261514048 4.677207566923624
  endloop
endfacet
facet normal 8.242627317510478e-17 1.4901215953259476e-08 1.0
  outer loop
    vertex 23.898754098463023 129.69483261514048 4.677207566923624
    vertex 84.898754098463 10.161007898388657 4.677209348122943
    vertex 68.89875409846296 71.1948326151407 4.6772084386447474
  endloop
endfacet
facet normal 8.242627317510478e-17 1.4901215953259476e-08 1.0
  outer loop
    vertex 68.89875409846296 71.1948326151407 4.6772084386447474
    vertex 84.898754098463 10.161007898388657 4.677209348122943
    vertex 74.89875409846304 71.1948326151407 4.677208438644758
  endloop
endfacet
facet normal 8.242627317510478e-17 1.4901215953259476e-08 1.0
  outer loop
    vertex 74.89875409846304 71.1948326151407 4.677208438644758
    vertex 84.898754098463 10.161007898388657 4.677209348122943
    vertex 74.89875409846304 82.99516301116853 4.6772082628055
  endloop
endfacet
facet normal 8.242627317510478e-17 1.4901215953259476e-08 1.0
  outer loop
    vertex 23.898754098463023 129.69483261514048 4.677207566923624
    vertex 18.89875409846312 146.4255767683153 4.677207317615204
    vertex 18.898754098463073 129.69483261514048 4.677207566923624
  endloop
endfacet
facet normal 8.242627317510478e-17 1.4901215953259476e-08 1.0
  outer loop
    vertex 18.89875409846312 146.4255767683153 4.677207317615204
    vertex 23.898754098463023 129.69483261514048 4.677207566923624
    vertex 84.898754098463 146.4255767683153 4.677207317615214
  endloop
endfacet
facet normal 8.242627317510478e-17 1.4901215953259476e-08 1.0
  outer loop
    vertex 84.898754098463 146.4255767683153 4.677207317615214
    vertex 23.898754098463023 129.69483261514048 4.677207566923624
    vertex 68.89875409846296 82.99516301116853 4.6772082628055
  endloop
endfacet
facet normal 8.242627317510478e-17 1.4901215953259476e-08 1.0
  outer loop
    vertex 68.89875409846296 82.99516301116853 4.6772082628055
    vertex 23.898754098463023 129.69483261514048 4.677207566923624
    vertex 68.89875409846296 71.1948326151407 4.6772084386447474
  endloop
endfacet
facet normal 8.242627317510478e-17 1.4901215953259476e-08 1.0
  outer loop
    vertex 84.898754098463 146.4255767683153 4.677207317615214
    vertex 68.89875409846296 82.99516301116853 4.6772082628055
    vertex 74.89875409846304 82.99516301116853 4.6772082628055
  endloop
endfacet
facet normal 8.242627317510478e-17 1.4901215953259476e-08 1.0
  outer loop
    vertex 84.898754098463 146.4255767683153 4.677207317615214
    vertex 74.89875409846304 82.99516301116853 4.6772082628055
    vertex 84.898754098463 10.161007898388657 4.677209348122943
  endloop
endfacet
facet normal 8.242627317510478e-17 1.4901215953259476e-08 1.0
  outer loop
    vertex 18.898754098463076 20.161007898388505 4.677209199110816
    vertex 23.898754098463023 119.19483261514053 4.677207723386395
    vertex 18.898754098463073 119.19483261514053 4.677207723386395
  endloop
endfacet
facet normal 8.242627317510478e-17 1.4901215953259476e-08 1.0
  outer loop
    vertex 23.898754098463023 119.19483261514053 4.677207723386395
    vertex 18.898754098463076 20.161007898388505 4.677209199110816
    vertex 23.898754098463023 20.161007898388505 4.677209199110816
  endloop
endfacet
facet normal -1.0 -7.879897621437458e-24 -5.288090419824614e-16
  outer loop
    vertex 68.89875409846292 71.19483385675159 88.00000010577895
    vertex 68.89875409846296 82.99516301116853 4.6772082628055
    vertex 68.89875409846296 71.1948326151407 4.6772084386447474
  endloop
endfacet
facet normal -1.0 -7.879897621437458e-24 -5.288090419824614e-16
  outer loop
    vertex 68.89875409846296 82.99516301116853 4.6772082628055
    vertex 68.89875409846292 71.19483385675159 88.00000010577895
    vertex 68.89875409846292 82.9951642527794 87.99999992993969
  endloop
endfacet
facet normal -1.0 6.361379381334292e-17 -1.758320341565839e-16
  outer loop
    vertex 18.898754098463076 20.161008141617945 21.000000866245013
    vertex 18.898754098463076 20.161007898388505 4.677209199110816
    vertex 18.898754098463076 10.161008141618007 21.000001015257176
  endloop
endfacet
facet normal -1.0 6.361379381334292e-17 -1.758320341565839e-16
  outer loop
    vertex 18.898754098463073 129.69483285836992 20.99999923405789
    vertex 18.898754098463073 129.69483261514048 4.677207566923624
    vertex 18.898754098463073 119.19483285836998 20.999999390520674
  endloop
endfacet
facet normal -1.0 6.361379381334292e-17 -1.758320341565839e-16
  outer loop
    vertex 18.898754098463073 10.161007828692576 1.0152540562913258e-06
    vertex 18.898754098463076 20.161007898388505 4.677209199110816
    vertex 18.898754098463073 146.42557669861924 -1.0152537291752139e-06
  endloop
endfacet
facet normal -1.0 6.361379381334292e-17 -1.758320341565839e-16
  outer loop
    vertex 18.898754098463076 20.161007898388505 4.677209199110816
    vertex 18.898754098463073 10.161007828692576 1.0152540562913258e-06
    vertex 18.898754098463076 10.161008141618007 21.000001015257176
  endloop
endfacet
facet normal -1.0 6.361379381334292e-17 -1.758320341565839e-16
  outer loop
    vertex 18.898754098463073 146.42557669861924 -1.0152537291752139e-06
    vertex 18.898754098463076 20.161007898388505 4.677209199110816
    vertex 18.898754098463073 119.19483261514053 4.677207723386395
  endloop
endfacet
facet normal -1.0 6.361379381334292e-17 -1.758320341565839e-16
  outer loop
    vertex 18.898754098463073 146.42557669861924 -1.0152537291752139e-06
    vertex 18.898754098463073 119.19483261514053 4.677207723386395
    vertex 18.898754098463073 129.69483261514048 4.677207566923624
  endloop
endfacet
facet normal -1.0 6.361379381334292e-17 -1.758320341565839e-16
  outer loop
    vertex 18.898754098463073 129.69483261514048 4.677207566923624
    vertex 18.898754098463073 119.19483261514053 4.677207723386395
    vertex 18.898754098463073 119.19483285836998 20.999999390520674
  endloop
endfacet
facet normal -1.0 6.361379381334292e-17 -1.758320341565839e-16
  outer loop
    vertex 18.898754098463073 146.42557669861924 -1.0152537291752139e-06
    vertex 18.898754098463073 129.69483261514048 4.677207566923624
    vertex 18.89875409846312 146.4255767683153 4.677207317615204
  endloop
endfacet
facet normal 3.759955310063925e-15 1.4901215583564876e-08 1.0
  outer loop
    vertex 22.898754098463023 11.161008171420427 23.00000100035594
    vertex 19.898754098463073 19.161008171420367 23.000000881146246
    vertex 19.898754098463073 11.161008171420427 23.00000100035595
  endloop
endfacet
facet normal 3.759955310063925e-15 1.4901215583564876e-08 1.0
  outer loop
    vertex 19.898754098463073 19.161008171420367 23.000000881146246
    vertex 22.898754098463023 11.161008171420427 23.00000100035594
    vertex 22.898754098463023 19.161008171420367 23.00000088114623
  endloop
endfacet
facet normal -4.699944137579766e-16 1.4901216061511915e-08 1.0
  outer loop
    vertex 74.898754098463 71.19483385675159 88.00000010577895
    vertex 68.89875409846292 82.9951642527794 87.99999992993969
    vertex 68.89875409846292 71.19483385675159 88.00000010577895
  endloop
endfacet
facet normal -4.699944137579766e-16 1.4901216061511915e-08 1.0
  outer loop
    vertex 68.89875409846292 82.9951642527794 87.99999992993969
    vertex 74.898754098463 71.19483385675159 88.00000010577895
    vertex 74.898754098463 82.9951642527794 87.99999992993969
  endloop
endfacet
facet normal 3.383959779057513e-15 1.4901215019571578e-08 1.0
  outer loop
    vertex 18.898754098463076 10.161008141618007 21.000001015257176
    vertex 19.898754098463073 11.161008141618005 21.000001000355955
    vertex 18.898754098463076 20.161008141617945 21.000000866245013
  endloop
endfacet
facet normal 3.383959779057513e-15 1.4901215019571578e-08 1.0
  outer loop
    vertex 19.898754098463073 11.161008141618005 21.000001000355955
    vertex 18.898754098463076 10.161008141618007 21.000001015257176
    vertex 23.898754098463023 10.161008141618007 21.000001015257155
  endloop
endfacet
facet normal 3.383959779057513e-15 1.4901215019571578e-08 1.0
  outer loop
    vertex 19.898754098463073 11.161008141618005 21.000001000355955
    vertex 23.898754098463023 10.161008141618007 21.000001015257155
    vertex 22.898754098463023 11.161008141618005 21.000001000355944
  endloop
endfacet
facet normal 3.383959779057513e-15 1.4901215019571578e-08 1.0
  outer loop
    vertex 22.898754098463023 11.161008141618005 21.000001000355944
    vertex 23.898754098463023 10.161008141618007 21.000001015257155
    vertex 22.898754098463023 19.161008141617945 21.000000881146235
  endloop
endfacet
facet normal 3.383959779057513e-15 1.4901215019571578e-08 1.0
  outer loop
    vertex 18.898754098463076 20.161008141617945 21.000000866245013
    vertex 19.898754098463073 19.161008141617945 21.00000088114625
    vertex 23.898754098463023 20.161008141617945 21.000000866245003
  endloop
endfacet
facet normal 3.383959779057513e-15 1.4901215019571578e-08 1.0
  outer loop
    vertex 19.898754098463073 19.161008141617945 21.00000088114625
    vertex 18.898754098463076 20.161008141617945 21.000000866245013
    vertex 19.898754098463073 11.161008141618005 21.000001000355955
  endloop
endfacet
facet normal 3.383959779057513e-15 1.4901215019571578e-08 1.0
  outer loop
    vertex 23.898754098463023 20.161008141617945 21.000000866245003
    vertex 19.898754098463073 19.161008141617945 21.00000088114625
    vertex 22.898754098463023 19.161008141617945 21.000000881146235
  endloop
endfacet
facet normal 3.383959779057513e-15 1.4901215019571578e-08 1.0
  outer loop
    vertex 23.898754098463023 20.161008141617945 21.000000866245003
    vertex 22.898754098463023 19.161008141617945 21.000000881146235
    vertex 23.898754098463023 10.161008141618007 21.000001015257155
  endloop
endfacet
facet normal 1.0 -4.0062276317438374e-23 -2.6885240397182495e-15
  outer loop
    vertex 22.898754098463023 19.161008141617945 21.000000881146235
    vertex 22.898754098463023 11.161008171420427 23.00000100035594
    vertex 22.898754098463023 11.161008141618005 21.000001000355944
  endloop
endfacet
facet normal 1.0 -4.0062276317438374e-23 -2.6885240397182495e-15
  outer loop
    vertex 22.898754098463023 11.161008171420427 23.00000100035594
    vertex 22.898754098463023 19.161008141617945 21.000000881146235
    vertex 22.898754098463023 19.161008171420367 23.00000088114623
  endloop
endfacet
facet normal -2.1571589451622007e-31 -1.0 1.4901215526192945e-08
  outer loop
    vertex 22.898754098463023 11.161008171420427 23.00000100035594
    vertex 19.898754098463073 11.161008141618005 21.000001000355955
    vertex 22.898754098463023 11.161008141618005 21.000001000355944
  endloop
endfacet
facet normal -2.1571589451622007e-31 -1.0 1.4901215526192945e-08
  outer loop
    vertex 19.898754098463073 11.161008141618005 21.000001000355955
    vertex 22.898754098463023 11.161008171420427 23.00000100035594
    vertex 19.898754098463073 11.161008171420427 23.00000100035595
  endloop
endfacet
facet normal -1.0 4.0062276317438374e-23 2.6885240397182495e-15
  outer loop
    vertex 19.898754098463073 11.161008171420427 23.00000100035595
    vertex 19.898754098463073 19.161008141617945 21.00000088114625
    vertex 19.898754098463073 11.161008141618005 21.000001000355955
  endloop
endfacet
facet normal -1.0 4.0062276317438374e-23 2.6885240397182495e-15
  outer loop
    vertex 19.898754098463073 19.161008141617945 21.00000088114625
    vertex 19.898754098463073 11.161008171420427 23.00000100035595
    vertex 19.898754098463073 19.161008171420367 23.000000881146246
  endloop
endfacet
facet normal 2.1571589451622007e-31 1.0 -1.4901215526192945e-08
  outer loop
    vertex 19.898754098463073 19.161008141617945 21.00000088114625
    vertex 22.898754098463023 19.161008171420367 23.00000088114623
    vertex 22.898754098463023 19.161008141617945 21.000000881146235
  endloop
endfacet
facet normal 2.1571589451622007e-31 1.0 -1.4901215526192945e-08
  outer loop
    vertex 22.898754098463023 19.161008171420367 23.00000088114623
    vertex 19.898754098463073 19.161008141617945 21.00000088114625
    vertex 19.898754098463073 19.161008171420367 23.000000881146246
  endloop
endfacet
facet normal 0.0 1.4901215583564876e-08 1.0
  outer loop
    vertex 22.898754098463023 120.19483288817244 22.999999375619403
    vertex 19.898754098463073 128.6948328881723 22.999999248959085
    vertex 19.898754098463073 120.19483288817244 22.999999375619403
  endloop
endfacet
facet normal 0.0 1.4901215583564876e-08 1.0
  outer loop
    vertex 19.898754098463073 128.6948328881723 22.999999248959085
    vertex 22.898754098463023 120.19483288817244 22.999999375619403
    vertex 22.898754098463023 128.6948328881723 22.999999248959085
  endloop
endfacet
facet normal 0.0 1.4901215583564876e-08 1.0
  outer loop
    vertex 18.898754098463073 119.19483285836998 20.999999390520674
    vertex 19.898754098463073 120.19483285837002 20.99999937561944
    vertex 18.898754098463073 129.69483285836992 20.99999923405789
  endloop
endfacet
facet normal 0.0 1.4901215583564876e-08 1.0
  outer loop
    vertex 19.898754098463073 120.19483285837002 20.99999937561944
    vertex 18.898754098463073 119.19483285836998 20.999999390520674
    vertex 23.898754098463023 119.19483285836998 20.999999390520674
  endloop
endfacet
facet normal 0.0 1.4901215583564876e-08 1.0
  outer loop
    vertex 19.898754098463073 120.19483285837002 20.99999937561944
    vertex 23.898754098463023 119.19483285836998 20.999999390520674
    vertex 22.898754098463023 120.19483285837002 20.99999937561944
  endloop
endfacet
facet normal 0.0 1.4901215583564876e-08 1.0
  outer loop
    vertex 22.898754098463023 120.19483285837002 20.99999937561944
    vertex 23.898754098463023 119.19483285836998 20.999999390520674
    vertex 22.898754098463023 128.6948328583699 20.999999248959124
  endloop
endfacet
facet normal 0.0 1.4901215583564876e-08 1.0
  outer loop
    vertex 18.898754098463073 129.69483285836992 20.99999923405789
    vertex 19.898754098463073 128.6948328583699 20.999999248959124
    vertex 23.898754098463023 129.69483285836992 20.99999923405789
  endloop
endfacet
facet normal 0.0 1.4901215583564876e-08 1.0
  outer loop
    vertex 19.898754098463073 128.6948328583699 20.999999248959124
    vertex 18.898754098463073 129.69483285836992 20.99999923405789
    vertex 19.898754098463073 120.19483285837002 20.99999937561944
  endloop
endfacet
facet normal 0.0 1.4901215583564876e-08 1.0
  outer loop
    vertex 23.898754098463023 129.69483285836992 20.99999923405789
    vertex 19.898754098463073 128.6948328583699 20.999999248959124
    vertex 22.898754098463023 128.6948328583699 20.999999248959124
  endloop
endfacet
facet normal 0.0 1.4901215583564876e-08 1.0
  outer loop
    vertex 23.898754098463023 129.69483285836992 20.99999923405789
    vertex 22.898754098463023 128.6948328583699 20.999999248959124
    vertex 23.898754098463023 119.19483285836998 20.999999390520674
  endloop
endfacet
facet normal 1.0 0.0 0.0
  outer loop
    vertex 22.898754098463023 128.6948328583699 20.999999248959124
    vertex 22.898754098463023 120.19483288817244 22.999999375619403
    vertex 22.898754098463023 120.19483285837002 20.99999937561944
  endloop
endfacet
facet normal 1.0 0.0 0.0
  outer loop
    vertex 22.898754098463023 120.19483288817244 22.999999375619403
    vertex 22.898754098463023 128.6948328583699 20.999999248959124
    vertex 22.898754098463023 128.6948328881723 22.999999248959085
  endloop
endfacet
facet normal 0.0 -1.0 1.4901215583564876e-08
  outer loop
    vertex 22.898754098463023 120.19483288817244 22.999999375619403
    vertex 19.898754098463073 120.19483285837002 20.99999937561944
    vertex 22.898754098463023 120.19483285837002 20.99999937561944
  endloop
endfacet
facet normal 0.0 -1.0 1.4901215583564876e-08
  outer loop
    vertex 19.898754098463073 120.19483285837002 20.99999937561944
    vertex 22.898754098463023 120.19483288817244 22.999999375619403
    vertex 19.898754098463073 120.19483288817244 22.999999375619403
  endloop
endfacet
facet normal -1.0 0.0 0.0
  outer loop
    vertex 19.898754098463073 120.19483288817244 22.999999375619403
    vertex 19.898754098463073 128.6948328583699 20.999999248959124
    vertex 19.898754098463073 120.19483285837002 20.99999937561944
  endloop
endfacet
facet normal -1.0 0.0 0.0
  outer loop
    vertex 19.898754098463073 128.6948328583699 20.999999248959124
    vertex 19.898754098463073 120.19483288817244 22.999999375619403
    vertex 19.898754098463073 128.6948328881723 22.999999248959085
  endloop
endfacet
facet normal 0.0 1.0 -1.4901215583564876e-08
  outer loop
    vertex 19.898754098463073 128.6948328881723 22.999999248959085
    vertex 22.898754098463023 128.6948328583699 20.999999248959124
    vertex 19.898754098463073 128.6948328583699 20.999999248959124
  endloop
endfacet
facet normal 0.0 1.0 -1.4901215583564876e-08
  outer loop
    vertex 22.898754098463023 128.6948328583699 20.999999248959124
    vertex 19.898754098463073 128.6948328881723 22.999999248959085
    vertex 22.898754098463023 128.6948328881723 22.999999248959085
  endloop
endfacet
endsolid qi_holder
