solid qi_holder
facet normal 1.0 0.0 0.0
  outer loop
    vertex 47.72968836839149 8.801827100165097 24.0000000000385
    vertex 47.72968836839149 18.801827100155016 4.677208332899129
    vertex 47.72968836839149 18.801827100165035 24.00000000003331
  endloop
endfacet
facet normal 1.0 0.0 0.0
  outer loop
    vertex 47.72968836839149 18.801827100155016 4.677208332899129
    vertex 47.72968836839149 8.801827100165097 24.0000000000385
    vertex 47.72968836839149 8.80182710015508 4.677208332904318
  endloop
endfacet
facet normal 1.0 0.0 0.0
  outer loop
    vertex 47.72968836839149 8.80182710015508 4.677208332904318
    vertex 47.72968836839149 8.801827100165097 24.0000000000385
    vertex 47.72968836839149 8.801827100163539 21.000000000038494
  endloop
endfacet
facet normal -6.918803625383844e-31 -1.0 5.19283123498856e-13
  outer loop
    vertex 92.7296883683914 69.83565181695147 90.00000000000678
    vertex 98.72968836839152 69.8356518169072 4.677208332872621
    vertex 98.72968836839146 69.83565181695147 90.00000000000679
  endloop
endfacet
facet normal -6.918803625383844e-31 -1.0 5.19283123498856e-13
  outer loop
    vertex 98.72968836839152 69.8356518169072 4.677208332872621
    vertex 92.7296883683914 69.83565181695147 90.00000000000678
    vertex 92.72968836839144 69.8356518169072 4.67720833287261
  endloop
endfacet
facet normal 1.0 0.0 0.0
  outer loop
    vertex 108.72968836839148 8.80182710015517 4.677208332904284
    vertex 108.72968836839148 145.06639597007938 -3.5362379691150636e-11
    vertex 108.72968836839148 145.0663959700818 4.677208332833581
  endloop
endfacet
facet normal 1.0 0.0 0.0
  outer loop
    vertex 108.72968836839148 145.06639597007938 -3.5362379691150636e-11
    vertex 108.72968836839148 8.80182710015517 4.677208332904284
    vertex 108.72968836839148 8.801827100152757 3.539621928894121e-11
  endloop
endfacet
facet normal 1.0 -1.5967485496279506e-28 -3.078096977554025e-16
  outer loop
    vertex 47.72968836839149 117.83565181691704 23.999999999981952
    vertex 47.72968836839149 128.335651816907 4.677208332842245
    vertex 47.72968836839149 128.335651816917 23.999999999976506
  endloop
endfacet
facet normal 1.0 -1.5967485496279506e-28 -3.078096977554025e-16
  outer loop
    vertex 47.72968836839149 128.335651816907 4.677208332842245
    vertex 47.72968836839149 117.83565181691704 23.999999999981952
    vertex 47.72968836839149 117.83565181690702 4.677208332847693
  endloop
endfacet
facet normal 1.6761663106343594e-31 1.0 -5.19014245792799e-13
  outer loop
    vertex 98.72968836839152 81.63598221293503 4.677208332866485
    vertex 92.7296883683914 81.63598221297929 90.00000000000065
    vertex 98.72968836839146 81.63598221297929 90.00000000000065
  endloop
endfacet
facet normal 1.6761663106343594e-31 1.0 -5.19014245792799e-13
  outer loop
    vertex 92.7296883683914 81.63598221297929 90.00000000000065
    vertex 98.72968836839152 81.63598221293503 4.677208332866485
    vertex 92.72968836839144 81.63598221293503 4.677208332866485
  endloop
endfacet
facet normal 1.6829543681186759e-16 -5.188783103225172e-13 -1.0
  outer loop
    vertex 46.729688368401014 145.06639597007938 -3.54074991548714e-11
    vertex 38.72968836839156 8.801827100152757 3.539621928894121e-11
    vertex 38.72968836839156 145.06639597007938 -3.5362379691150636e-11
  endloop
endfacet
facet normal 1.6829543681186759e-16 -5.188783103225172e-13 -1.0
  outer loop
    vertex 38.72968836839156 8.801827100152757 3.539621928894121e-11
    vertex 46.729688368401014 145.06639597007938 -3.54074991548714e-11
    vertex 108.72968836839148 8.801827100152757 3.539621928894121e-11
  endloop
endfacet
facet normal 1.6829543681186759e-16 -5.188783103225172e-13 -1.0
  outer loop
    vertex 108.72968836839148 8.801827100152757 3.539621928894121e-11
    vertex 46.729688368401014 145.06639597007938 -3.54074991548714e-11
    vertex 108.72968836839148 145.06639597007938 -3.5362379691150636e-11
  endloop
endfacet
facet normal 0.0 1.0 -5.187453680867419e-13
  outer loop
    vertex 47.72968836839149 18.801827100165035 24.00000000003331
    vertex 42.72968836839155 18.801827100155016 4.677208332899129
    vertex 42.72968836839155 18.801827100165035 24.00000000003332
  endloop
endfacet
facet normal 0.0 1.0 -5.187453680867419e-13
  outer loop
    vertex 42.72968836839155 18.801827100155016 4.677208332899129
    vertex 47.72968836839149 18.801827100165035 24.00000000003331
    vertex 47.72968836839149 18.801827100155016 4.677208332899129
  endloop
endfacet
facet normal -1.0 -0.0 0.0
  outer loop
    vertex 42.72968836839155 8.80182710015508 4.677208332904318
    vertex 42.72968836839155 18.801827100165035 24.00000000003332
    vertex 42.72968836839155 18.801827100155016 4.677208332899129
  endloop
endfacet
facet normal -1.0 -0.0 0.0
  outer loop
    vertex 42.72968836839155 18.801827100165035 24.00000000003332
    vertex 42.72968836839155 8.80182710015508 4.677208332904318
    vertex 42.72968836839155 8.801827100165097 24.00000000003851
  endloop
endfacet
facet normal 0.0 1.0 -5.187453680867419e-13
  outer loop
    vertex 108.72968836839148 145.06639597007938 -3.5362379691150636e-11
    vertex 38.7296883683916 145.0663959700818 4.67720833283357
    vertex 108.72968836839148 145.0663959700818 4.677208332833581
  endloop
endfacet
facet normal 0.0 1.0 -5.187453680867419e-13
  outer loop
    vertex 38.7296883683916 145.0663959700818 4.67720833283357
    vertex 108.72968836839148 145.06639597007938 -3.5362379691150636e-11
    vertex 38.72968836839156 145.06639597007938 -3.5362379691150636e-11
  endloop
endfacet
facet normal 0.0 1.0 -5.187453680867419e-13
  outer loop
    vertex 38.72968836839156 145.06639597007938 -3.5362379691150636e-11
    vertex 108.72968836839148 145.06639597007938 -3.5362379691150636e-11
    vertex 46.729688368401014 145.06639597007938 -3.54074991548714e-11
  endloop
endfacet
facet normal 0.0 -1.0 5.187453680867419e-13
  outer loop
    vertex 38.72968836839156 117.83565181690702 4.677208332847693
    vertex 47.72968836839149 117.83565181691704 23.999999999981952
    vertex 38.72968836839156 117.83565181691704 23.999999999981952
  endloop
endfacet
facet normal 0.0 -1.0 5.187453680867419e-13
  outer loop
    vertex 47.72968836839149 117.83565181691704 23.999999999981952
    vertex 38.72968836839156 117.83565181690702 4.677208332847693
    vertex 47.72968836839149 117.83565181690702 4.677208332847693
  endloop
endfacet
facet normal 1.0 2.7480957765199716e-28 5.288090419824613e-16
  outer loop
    vertex 98.72968836839146 69.83565181695147 90.00000000000679
    vertex 98.72968836839152 81.63598221293503 4.677208332866485
    vertex 98.72968836839146 81.63598221297929 90.00000000000065
  endloop
endfacet
facet normal 1.0 2.7480957765199716e-28 5.288090419824613e-16
  outer loop
    vertex 98.72968836839152 81.63598221293503 4.677208332866485
    vertex 98.72968836839146 69.83565181695147 90.00000000000679
    vertex 98.72968836839152 69.8356518169072 4.677208332872621
  endloop
endfacet
facet normal 8.89352642111303e-16 -1.0 5.170915403394797e-13
  outer loop
    vertex 42.72968836839155 8.80182710015508 4.677208332904318
    vertex 47.72968836839149 8.801827100165097 24.0000000000385
    vertex 42.72968836839155 8.801827100165097 24.00000000003851
  endloop
endfacet
facet normal 8.89352642111303e-16 -1.0 5.170915403394797e-13
  outer loop
    vertex 47.72968836839149 8.801827100165097 24.0000000000385
    vertex 42.72968836839155 8.80182710015508 4.677208332904318
    vertex 47.72968836839149 8.801827100163539 21.000000000038494
  endloop
endfacet
facet normal 8.89352642111303e-16 -1.0 5.170915403394797e-13
  outer loop
    vertex 47.72968836839149 8.801827100163539 21.000000000038494
    vertex 42.72968836839155 8.80182710015508 4.677208332904318
    vertex 47.72968836839149 8.80182710015508 4.677208332904318
  endloop
endfacet
facet normal 8.89352642111303e-16 -1.0 5.170915403394797e-13
  outer loop
    vertex 47.72968836839149 8.80182710015508 4.677208332904318
    vertex 42.72968836839155 8.80182710015508 4.677208332904318
    vertex 38.72968836839156 8.80182710015508 4.677208332904284
  endloop
endfacet
facet normal 8.89352642111303e-16 -1.0 5.170915403394797e-13
  outer loop
    vertex 47.72968836839149 8.80182710015508 4.677208332904318
    vertex 38.72968836839156 8.80182710015508 4.677208332904284
    vertex 108.72968836839148 8.80182710015517 4.677208332904284
  endloop
endfacet
facet normal 8.89352642111303e-16 -1.0 5.170915403394797e-13
  outer loop
    vertex 108.72968836839148 8.80182710015517 4.677208332904284
    vertex 38.72968836839156 8.80182710015508 4.677208332904284
    vertex 38.72968836839156 8.801827100152757 3.539621928894121e-11
  endloop
endfacet
facet normal 8.89352642111303e-16 -1.0 5.170915403394797e-13
  outer loop
    vertex 108.72968836839148 8.80182710015517 4.677208332904284
    vertex 38.72968836839156 8.801827100152757 3.539621928894121e-11
    vertex 108.72968836839148 8.801827100152757 3.539621928894121e-11
  endloop
endfacet
facet normal 0.0 1.0 -5.187453680867419e-13
  outer loop
    vertex 47.72968836839149 128.335651816907 4.677208332842245
    vertex 38.72968836839156 128.335651816917 23.999999999976506
    vertex 47.72968836839149 128.335651816917 23.999999999976506
  endloop
endfacet
facet normal 0.0 1.0 -5.187453680867419e-13
  outer loop
    vertex 38.72968836839156 128.335651816917 23.999999999976506
    vertex 47.72968836839149 128.335651816907 4.677208332842245
    vertex 38.72968836839156 128.335651816907 4.677208332842245
  endloop
endfacet
facet normal -2.6389666156787436e-18 5.190560322442922e-13 1.0
  outer loop
    vertex 108.72968836839148 8.80182710015517 4.677208332904284
    vertex 47.72968836839149 18.801827100155016 4.677208332899129
    vertex 47.72968836839149 8.80182710015508 4.677208332904318
  endloop
endfacet
facet normal -2.6389666156787436e-18 5.190560322442922e-13 1.0
  outer loop
    vertex 47.72968836839149 18.801827100155016 4.677208332899129
    vertex 108.72968836839148 8.80182710015517 4.677208332904284
    vertex 47.72968836839149 117.83565181690702 4.677208332847693
  endloop
endfacet
facet normal -2.6389666156787436e-18 5.190560322442922e-13 1.0
  outer loop
    vertex 47.72968836839149 117.83565181690702 4.677208332847693
    vertex 108.72968836839148 8.80182710015517 4.677208332904284
    vertex 47.72968836839149 128.335651816907 4.677208332842245
  endloop
endfacet
facet normal -2.6389666156787436e-18 5.190560322442922e-13 1.0
  outer loop
    vertex 47.72968836839149 128.335651816907 4.677208332842245
    vertex 108.72968836839148 8.80182710015517 4.677208332904284
    vertex 92.72968836839144 69.8356518169072 4.67720833287261
  endloop
endfacet
facet normal -2.6389666156787436e-18 5.190560322442922e-13 1.0
  outer loop
    vertex 92.72968836839144 69.8356518169072 4.67720833287261
    vertex 108.72968836839148 8.80182710015517 4.677208332904284
    vertex 98.72968836839152 69.8356518169072 4.677208332872621
  endloop
endfacet
facet normal -2.6389666156787436e-18 5.190560322442922e-13 1.0
  outer loop
    vertex 98.72968836839152 69.8356518169072 4.677208332872621
    vertex 108.72968836839148 8.80182710015517 4.677208332904284
    vertex 98.72968836839152 81.63598221293503 4.677208332866485
  endloop
endfacet
facet normal -2.6389666156787436e-18 5.190560322442922e-13 1.0
  outer loop
    vertex 47.72968836839149 128.335651816907 4.677208332842245
    vertex 38.7296883683916 145.0663959700818 4.67720833283357
    vertex 38.72968836839156 128.335651816907 4.677208332842245
  endloop
endfacet
facet normal -2.6389666156787436e-18 5.190560322442922e-13 1.0
  outer loop
    vertex 38.7296883683916 145.0663959700818 4.67720833283357
    vertex 47.72968836839149 128.335651816907 4.677208332842245
    vertex 108.72968836839148 145.0663959700818 4.677208332833581
  endloop
endfacet
facet normal -2.6389666156787436e-18 5.190560322442922e-13 1.0
  outer loop
    vertex 108.72968836839148 145.0663959700818 4.677208332833581
    vertex 47.72968836839149 128.335651816907 4.677208332842245
    vertex 92.72968836839144 81.63598221293503 4.677208332866485
  endloop
endfacet
facet normal -2.6389666156787436e-18 5.190560322442922e-13 1.0
  outer loop
    vertex 92.72968836839144 81.63598221293503 4.677208332866485
    vertex 47.72968836839149 128.335651816907 4.677208332842245
    vertex 92.72968836839144 69.8356518169072 4.67720833287261
  endloop
endfacet
facet normal -2.6389666156787436e-18 5.190560322442922e-13 1.0
  outer loop
    vertex 108.72968836839148 145.0663959700818 4.677208332833581
    vertex 92.72968836839144 81.63598221293503 4.677208332866485
    vertex 98.72968836839152 81.63598221293503 4.677208332866485
  endloop
endfacet
facet normal -2.6389666156787436e-18 5.190560322442922e-13 1.0
  outer loop
    vertex 108.72968836839148 145.0663959700818 4.677208332833581
    vertex 98.72968836839152 81.63598221293503 4.677208332866485
    vertex 108.72968836839148 8.80182710015517 4.677208332904284
  endloop
endfacet
facet normal -2.6389666156787436e-18 5.190560322442922e-13 1.0
  outer loop
    vertex 42.72968836839155 8.80182710015508 4.677208332904318
    vertex 38.72968836839156 117.83565181690702 4.677208332847693
    vertex 38.72968836839156 8.80182710015508 4.677208332904284
  endloop
endfacet
facet normal -2.6389666156787436e-18 5.190560322442922e-13 1.0
  outer loop
    vertex 38.72968836839156 117.83565181690702 4.677208332847693
    vertex 42.72968836839155 8.80182710015508 4.677208332904318
    vertex 42.72968836839155 18.801827100155016 4.677208332899129
  endloop
endfacet
facet normal -2.6389666156787436e-18 5.190560322442922e-13 1.0
  outer loop
    vertex 38.72968836839156 117.83565181690702 4.677208332847693
    vertex 42.72968836839155 18.801827100155016 4.677208332899129
    vertex 47.72968836839149 117.83565181690702 4.677208332847693
  endloop
endfacet
facet normal -2.6389666156787436e-18 5.190560322442922e-13 1.0
  outer loop
    vertex 47.72968836839149 117.83565181690702 4.677208332847693
    vertex 42.72968836839155 18.801827100155016 4.677208332899129
    vertex 47.72968836839149 18.801827100155016 4.677208332899129
  endloop
endfacet
facet normal -1.0 -2.744015595229504e-28 -5.288090419824613e-16
  outer loop
    vertex 92.72968836839144 69.8356518169072 4.67720833287261
    vertex 92.7296883683914 81.63598221297929 90.00000000000065
    vertex 92.72968836839144 81.63598221293503 4.677208332866485
  endloop
endfacet
facet normal -1.0 -2.744015595229504e-28 -5.288090419824613e-16
  outer loop
    vertex 92.7296883683914 81.63598221297929 90.00000000000065
    vertex 92.72968836839144 69.8356518169072 4.67720833287261
    vertex 92.7296883683914 69.83565181695147 90.00000000000678
  endloop
endfacet
facet normal -1.0 9.209538179290765e-17 -1.6448462320025084e-16
  outer loop
    vertex 38.72968836839156 117.83565181691704 23.999999999981952
    vertex 38.72968836839156 128.335651816917 23.999999999976506
    vertex 38.72968836839156 117.83565181690702 4.677208332847693
  endloop
endfacet
facet normal -1.0 9.209538179290765e-17 -1.6448462320025084e-16
  outer loop
    vertex 38.72968836839156 8.801827100152757 3.539621928894121e-11
    vertex 38.7296883683916 145.0663959700818 4.67720833283357
    vertex 38.72968836839156 145.06639597007938 -3.5362379691150636e-11
  endloop
endfacet
facet normal -1.0 9.209538179290765e-17 -1.6448462320025084e-16
  outer loop
    vertex 38.7296883683916 145.0663959700818 4.67720833283357
    vertex 38.72968836839156 8.801827100152757 3.539621928894121e-11
    vertex 38.72968836839156 128.335651816907 4.677208332842245
  endloop
endfacet
facet normal -1.0 9.209538179290765e-17 -1.6448462320025084e-16
  outer loop
    vertex 38.72968836839156 128.335651816907 4.677208332842245
    vertex 38.72968836839156 8.801827100152757 3.539621928894121e-11
    vertex 38.72968836839156 117.83565181690702 4.677208332847693
  endloop
endfacet
facet normal -1.0 9.209538179290765e-17 -1.6448462320025084e-16
  outer loop
    vertex 38.72968836839156 128.335651816907 4.677208332842245
    vertex 38.72968836839156 117.83565181690702 4.677208332847693
    vertex 38.72968836839156 128.335651816917 23.999999999976506
  endloop
endfacet
facet normal -1.0 9.209538179290765e-17 -1.6448462320025084e-16
  outer loop
    vertex 38.72968836839156 117.83565181690702 4.677208332847693
    vertex 38.72968836839156 8.801827100152757 3.539621928894121e-11
    vertex 38.72968836839156 8.80182710015508 4.677208332904284
  endloop
endfacet
facet normal 3.759955310063926e-15 5.187453680867419e-13 1.0
  outer loop
    vertex 46.7296883683915 9.801827100166133 26.00000000003798
    vertex 43.72968836839155 17.801827100166072 26.000000000033836
    vertex 43.72968836839155 9.801827100166133 26.00000000003799
  endloop
endfacet
facet normal 3.759955310063926e-15 5.187453680867419e-13 1.0
  outer loop
    vertex 43.72968836839155 17.801827100166072 26.000000000033836
    vertex 46.7296883683915 9.801827100166133 26.00000000003798
    vertex 46.7296883683915 17.801827100166072 26.000000000033825
  endloop
endfacet
facet normal -4.699944137579767e-16 5.192233151251566e-13 1.0
  outer loop
    vertex 98.72968836839146 69.83565181695147 90.00000000000679
    vertex 92.7296883683914 81.63598221297929 90.00000000000065
    vertex 92.7296883683914 69.83565181695147 90.00000000000678
  endloop
endfacet
facet normal -4.699944137579767e-16 5.192233151251566e-13 1.0
  outer loop
    vertex 92.7296883683914 81.63598221297929 90.00000000000065
    vertex 98.72968836839146 69.83565181695147 90.00000000000679
    vertex 98.72968836839146 81.63598221297929 90.00000000000065
  endloop
endfacet
facet normal 2.688524039718248e-15 5.186879961562993e-13 1.0
  outer loop
    vertex 42.72968836839155 8.801827100165097 24.00000000003851
    vertex 43.72968836839155 9.801827100165095 24.000000000037993
    vertex 42.72968836839155 18.801827100165035 24.00000000003332
  endloop
endfacet
facet normal 2.688524039718248e-15 5.186879961562993e-13 1.0
  outer loop
    vertex 43.72968836839155 9.801827100165095 24.000000000037993
    vertex 42.72968836839155 8.801827100165097 24.00000000003851
    vertex 47.72968836839149 8.801827100165097 24.0000000000385
  endloop
endfacet
facet normal 2.688524039718248e-15 5.186879961562993e-13 1.0
  outer loop
    vertex 43.72968836839155 9.801827100165095 24.000000000037993
    vertex 47.72968836839149 8.801827100165097 24.0000000000385
    vertex 46.7296883683915 9.801827100165095 24.000000000037982
  endloop
endfacet
facet normal 2.688524039718248e-15 5.186879961562993e-13 1.0
  outer loop
    vertex 46.7296883683915 9.801827100165095 24.000000000037982
    vertex 47.72968836839149 8.801827100165097 24.0000000000385
    vertex 46.7296883683915 17.801827100165035 24.00000000003383
  endloop
endfacet
facet normal 2.688524039718248e-15 5.186879961562993e-13 1.0
  outer loop
    vertex 42.72968836839155 18.801827100165035 24.00000000003332
    vertex 43.72968836839155 17.801827100165035 24.00000000003384
    vertex 47.72968836839149 18.801827100165035 24.00000000003331
  endloop
endfacet
facet normal 2.688524039718248e-15 5.186879961562993e-13 1.0
  outer loop
    vertex 43.72968836839155 17.801827100165035 24.00000000003384
    vertex 42.72968836839155 18.801827100165035 24.00000000003332
    vertex 43.72968836839155 9.801827100165095 24.000000000037993
  endloop
endfacet
facet normal 2.688524039718248e-15 5.186879961562993e-13 1.0
  outer loop
    vertex 47.72968836839149 18.801827100165035 24.00000000003331
    vertex 43.72968836839155 17.801827100165035 24.00000000003384
    vertex 46.7296883683915 17.801827100165035 24.00000000003383
  endloop
endfacet
facet normal 2.688524039718248e-15 5.186879961562993e-13 1.0
  outer loop
    vertex 47.72968836839149 18.801827100165035 24.00000000003331
    vertex 46.7296883683915 17.801827100165035 24.00000000003383
    vertex 47.72968836839149 8.801827100165097 24.0000000000385
  endloop
endfacet
facet normal 1.0 -1.3946593925936974e-27 -2.6885240397182487e-15
  outer loop
    vertex 46.7296883683915 9.801827100166133 26.00000000003798
    vertex 46.7296883683915 17.801827100165035 24.00000000003383
    vertex 46.7296883683915 17.801827100166072 26.000000000033825
  endloop
endfacet
facet normal 1.0 -1.3946593925936974e-27 -2.6885240397182487e-15
  outer loop
    vertex 46.7296883683915 17.801827100165035 24.00000000003383
    vertex 46.7296883683915 9.801827100166133 26.00000000003798
    vertex 46.7296883683915 9.801827100165095 24.000000000037982
  endloop
endfacet
facet normal -2.157158945162201e-31 -1.0 5.186879961562993e-13
  outer loop
    vertex 43.72968836839155 9.801827100165095 24.000000000037993
    vertex 46.7296883683915 9.801827100166133 26.00000000003798
    vertex 43.72968836839155 9.801827100166133 26.00000000003799
  endloop
endfacet
facet normal -2.157158945162201e-31 -1.0 5.186879961562993e-13
  outer loop
    vertex 46.7296883683915 9.801827100166133 26.00000000003798
    vertex 43.72968836839155 9.801827100165095 24.000000000037993
    vertex 46.7296883683915 9.801827100165095 24.000000000037982
  endloop
endfacet
facet normal -1.0 1.3946593925936974e-27 2.6885240397182487e-15
  outer loop
    vertex 43.72968836839155 9.801827100165095 24.000000000037993
    vertex 43.72968836839155 17.801827100166072 26.000000000033836
    vertex 43.72968836839155 17.801827100165035 24.00000000003384
  endloop
endfacet
facet normal -1.0 1.3946593925936974e-27 2.6885240397182487e-15
  outer loop
    vertex 43.72968836839155 17.801827100166072 26.000000000033836
    vertex 43.72968836839155 9.801827100165095 24.000000000037993
    vertex 43.72968836839155 9.801827100166133 26.00000000003799
  endloop
endfacet
facet normal 2.157158945162201e-31 1.0 -5.186879961562993e-13
  outer loop
    vertex 46.7296883683915 17.801827100166072 26.000000000033825
    vertex 43.72968836839155 17.801827100165035 24.00000000003384
    vertex 43.72968836839155 17.801827100166072 26.000000000033836
  endloop
endfacet
facet normal 2.157158945162201e-31 1.0 -5.186879961562993e-13
  outer loop
    vertex 43.72968836839155 17.801827100165035 24.00000000003384
    vertex 46.7296883683915 17.801827100166072 26.000000000033825
    vertex 46.7296883683915 17.801827100165035 24.00000000003383
  endloop
endfacet
facet normal 0.0 5.187453680867419e-13 1.0
  outer loop
    vertex 46.7296883683915 118.83565181691812 25.999999999981398
    vertex 39.72968836839156 127.33565181691799 25.999999999976986
    vertex 39.72968836839156 118.83565181691812 25.999999999981398
  endloop
endfacet
facet normal 0.0 5.187453680867419e-13 1.0
  outer loop
    vertex 39.72968836839156 127.33565181691799 25.999999999976986
    vertex 46.7296883683915 118.83565181691812 25.999999999981398
    vertex 46.7296883683915 127.33565181691799 25.999999999976986
  endloop
endfacet
facet normal 0.0 5.187453680867419e-13 1.0
  outer loop
    vertex 38.72968836839156 117.83565181691704 23.999999999981952
    vertex 39.72968836839156 118.83565181691708 23.999999999981434
    vertex 38.72968836839156 128.335651816917 23.999999999976506
  endloop
endfacet
facet normal 0.0 5.187453680867419e-13 1.0
  outer loop
    vertex 39.72968836839156 118.83565181691708 23.999999999981434
    vertex 38.72968836839156 117.83565181691704 23.999999999981952
    vertex 47.72968836839149 117.83565181691704 23.999999999981952
  endloop
endfacet
facet normal 0.0 5.187453680867419e-13 1.0
  outer loop
    vertex 39.72968836839156 118.83565181691708 23.999999999981434
    vertex 47.72968836839149 117.83565181691704 23.999999999981952
    vertex 46.7296883683915 118.83565181691708 23.999999999981434
  endloop
endfacet
facet normal 0.0 5.187453680867419e-13 1.0
  outer loop
    vertex 46.7296883683915 118.83565181691708 23.999999999981434
    vertex 47.72968836839149 117.83565181691704 23.999999999981952
    vertex 46.7296883683915 127.33565181691695 23.999999999977025
  endloop
endfacet
facet normal 0.0 5.187453680867419e-13 1.0
  outer loop
    vertex 38.72968836839156 128.335651816917 23.999999999976506
    vertex 39.72968836839156 127.33565181691695 23.999999999977025
    vertex 47.72968836839149 128.335651816917 23.999999999976506
  endloop
endfacet
facet normal 0.0 5.187453680867419e-13 1.0
  outer loop
    vertex 39.72968836839156 127.33565181691695 23.999999999977025
    vertex 38.72968836839156 128.335651816917 23.999999999976506
    vertex 39.72968836839156 118.83565181691708 23.999999999981434
  endloop
endfacet
facet normal 0.0 5.187453680867419e-13 1.0
  outer loop
    vertex 47.72968836839149 128.335651816917 23.999999999976506
    vertex 39.72968836839156 127.33565181691695 23.999999999977025
    vertex 46.7296883683915 127.33565181691695 23.999999999977025
  endloop
endfacet
facet normal 0.0 5.187453680867419e-13 1.0
  outer loop
    vertex 47.72968836839149 128.335651816917 23.999999999976506
    vertex 46.7296883683915 127.33565181691695 23.999999999977025
    vertex 47.72968836839149 117.83565181691704 23.999999999981952
  endloop
endfacet
facet normal 1.0 0.0 0.0
  outer loop
    vertex 46.7296883683915 118.83565181691812 25.999999999981398
    vertex 46.7296883683915 127.33565181691695 23.999999999977025
    vertex 46.7296883683915 127.33565181691799 25.999999999976986
  endloop
endfacet
facet normal 1.0 0.0 0.0
  outer loop
    vertex 46.7296883683915 127.33565181691695 23.999999999977025
    vertex 46.7296883683915 118.83565181691812 25.999999999981398
    vertex 46.7296883683915 118.83565181691708 23.999999999981434
  endloop
endfacet
facet normal 0.0 -1.0 5.187453680867419e-13
  outer loop
    vertex 39.72968836839156 118.83565181691708 23.999999999981434
    vertex 46.7296883683915 118.83565181691812 25.999999999981398
    vertex 39.72968836839156 118.83565181691812 25.999999999981398
  endloop
endfacet
facet normal 0.0 -1.0 5.187453680867419e-13
  outer loop
    vertex 46.7296883683915 118.83565181691812 25.999999999981398
    vertex 39.72968836839156 118.83565181691708 23.999999999981434
    vertex 46.7296883683915 118.83565181691708 23.999999999981434
  endloop
endfacet
facet normal -1.0 0.0 0.0
  outer loop
    vertex 39.72968836839156 118.83565181691708 23.999999999981434
    vertex 39.72968836839156 127.33565181691799 25.999999999976986
    vertex 39.72968836839156 127.33565181691695 23.999999999977025
  endloop
endfacet
facet normal -1.0 0.0 0.0
  outer loop
    vertex 39.72968836839156 127.33565181691799 25.999999999976986
    vertex 39.72968836839156 118.83565181691708 23.999999999981434
    vertex 39.72968836839156 118.83565181691812 25.999999999981398
  endloop
endfacet
facet normal 0.0 1.0 -5.187453680867419e-13
  outer loop
    vertex 46.7296883683915 127.33565181691695 23.999999999977025
    vertex 39.72968836839156 127.33565181691799 25.999999999976986
    vertex 46.7296883683915 127.33565181691799 25.999999999976986
  endloop
endfacet
facet normal 0.0 1.0 -5.187453680867419e-13
  outer loop
    vertex 39.72968836839156 127.33565181691799 25.999999999976986
    vertex 46.7296883683915 127.33565181691695 23.999999999977025
    vertex 39.72968836839156 127.33565181691695 23.999999999977025
  endloop
endfacet
endsolid qi_holder
