solid qi_holder
facet normal 1.0 0.0 0.0
  outer loop
    vertex 23.898754098463023 10.16100814161803 21.000001015257176
    vertex 23.898754098463023 20.161007898388526 4.677209199110838
    vertex 23.898754098463023 20.161008141617966 21.000000866245028
  endloop
endfacet
facet normal 1.0 0.0 0.0
  outer loop
    vertex 23.898754098463023 20.161007898388526 4.677209199110838
    vertex 23.898754098463023 10.16100814161803 21.000001015257176
    vertex 23.898754098463023 10.161007898388588 4.677209348123
  endloop
endfacet
facet normal -6.918803625383844e-31 -1.0 1.490121612132029e-08
  outer loop
    vertex 68.89875409846292 71.19483385675159 88.00000010577895
    vertex 74.89875409846304 71.19483261514071 4.677208438644781
    vertex 74.898754098463 71.19483385675159 88.00000010577895
  endloop
endfacet
facet normal -6.918803625383844e-31 -1.0 1.490121612132029e-08
  outer loop
    vertex 74.89875409846304 71.19483261514071 4.677208438644781
    vertex 68.89875409846292 71.19483385675159 88.00000010577895
    vertex 68.89875409846296 71.19483261514071 4.67720843864477
  endloop
endfacet
facet normal 1.0 0.0 0.0
  outer loop
    vertex 84.898754098463 10.161007898388679 4.677209348122966
    vertex 84.898754098463 146.4255766986192 -1.0152537066154821e-06
    vertex 84.898754098463 146.4255767683153 4.677207317615237
  endloop
endfacet
facet normal 1.0 0.0 0.0
  outer loop
    vertex 84.898754098463 146.4255766986192 -1.0152537066154821e-06
    vertex 84.898754098463 10.161007898388679 4.677209348122966
    vertex 84.898754098463 10.161007828692599 1.0152540788510577e-06
  endloop
endfacet
facet normal 1.0 -4.586738664965198e-24 -3.078096977554025e-16
  outer loop
    vertex 23.898754098463023 119.19483285836998 20.999999390520685
    vertex 23.898754098463023 129.69483261514048 4.677207566923646
    vertex 23.898754098463023 129.69483285836992 20.999999234057913
  endloop
endfacet
facet normal 1.0 -4.586738664965198e-24 -3.078096977554025e-16
  outer loop
    vertex 23.898754098463023 129.69483261514048 4.677207566923646
    vertex 23.898754098463023 119.19483285836998 20.999999390520685
    vertex 23.898754098463023 119.19483261514053 4.677207723386418
  endloop
endfacet
facet normal 1.6761663106343594e-31 1.0 -1.490121585244258e-08
  outer loop
    vertex 74.89875409846304 82.99516301116854 4.677208262805512
    vertex 68.89875409846292 82.99516425277942 87.99999992993969
    vertex 74.898754098463 82.99516425277942 87.99999992993969
  endloop
endfacet
facet normal 1.6761663106343594e-31 1.0 -1.490121585244258e-08
  outer loop
    vertex 68.89875409846292 82.99516425277942 87.99999992993969
    vertex 74.89875409846304 82.99516301116854 4.677208262805512
    vertex 68.89875409846296 82.99516301116854 4.677208262805512
  endloop
endfacet
facet normal 1.6829543681186759e-16 -1.490121571650711e-08 -1.0
  outer loop
    vertex 22.898754098472544 146.4255766986192 -1.0152537517349458e-06
    vertex 14.898754098463083 10.161007828692599 1.0152540788510577e-06
    vertex 14.898754098463083 146.4255766986192 -1.0152537066154821e-06
  endloop
endfacet
facet normal 1.6829543681186759e-16 -1.490121571650711e-08 -1.0
  outer loop
    vertex 14.898754098463083 10.161007828692599 1.0152540788510577e-06
    vertex 22.898754098472544 146.4255766986192 -1.0152537517349458e-06
    vertex 84.898754098463 10.161007828692599 1.0152540788510577e-06
  endloop
endfacet
facet normal 1.6829543681186759e-16 -1.490121571650711e-08 -1.0
  outer loop
    vertex 84.898754098463 10.161007828692599 1.0152540788510577e-06
    vertex 22.898754098472544 146.4255766986192 -1.0152537517349458e-06
    vertex 84.898754098463 146.4255766986192 -1.0152537066154821e-06
  endloop
endfacet
facet normal 0.0 1.0 -1.4901215583564876e-08
  outer loop
    vertex 23.898754098463023 20.161008141617966 21.000000866245028
    vertex 18.898754098463076 20.161007898388526 4.677209199110838
    vertex 18.898754098463076 20.161008141617966 21.00000086624504
  endloop
endfacet
facet normal 0.0 1.0 -1.4901215583564876e-08
  outer loop
    vertex 18.898754098463076 20.161007898388526 4.677209199110838
    vertex 23.898754098463023 20.161008141617966 21.000000866245028
    vertex 23.898754098463023 20.161007898388526 4.677209199110838
  endloop
endfacet
facet normal -1.0 -0.0 0.0
  outer loop
    vertex 18.898754098463076 10.161007898388588 4.677209348123
    vertex 18.898754098463076 20.161008141617966 21.00000086624504
    vertex 18.898754098463076 20.161007898388526 4.677209199110838
  endloop
endfacet
facet normal -1.0 -0.0 0.0
  outer loop
    vertex 18.898754098463076 20.161008141617966 21.00000086624504
    vertex 18.898754098463076 10.161007898388588 4.677209348123
    vertex 18.898754098463076 10.16100814161803 21.000001015257197
  endloop
endfacet
facet normal 0.0 1.0 -1.4901215583564876e-08
  outer loop
    vertex 84.898754098463 146.4255766986192 -1.0152537066154821e-06
    vertex 14.89875409846313 146.4255767683153 4.677207317615226
    vertex 84.898754098463 146.4255767683153 4.677207317615237
  endloop
endfacet
facet normal 0.0 1.0 -1.4901215583564876e-08
  outer loop
    vertex 14.89875409846313 146.4255767683153 4.677207317615226
    vertex 84.898754098463 146.4255766986192 -1.0152537066154821e-06
    vertex 14.898754098463083 146.4255766986192 -1.0152537066154821e-06
  endloop
endfacet
facet normal 0.0 1.0 -1.4901215583564876e-08
  outer loop
    vertex 14.898754098463083 146.4255766986192 -1.0152537066154821e-06
    vertex 84.898754098463 146.4255766986192 -1.0152537066154821e-06
    vertex 22.898754098472544 146.4255766986192 -1.0152537517349458e-06
  endloop
endfacet
facet normal 0.0 -1.0 1.4901215583564876e-08
  outer loop
    vertex 14.898754098463083 119.19483261514053 4.677207723386418
    vertex 23.898754098463023 119.19483285836998 20.999999390520685
    vertex 14.898754098463083 119.19483285836998 20.999999390520685
  endloop
endfacet
facet normal 0.0 -1.0 1.4901215583564876e-08
  outer loop
    vertex 23.898754098463023 119.19483285836998 20.999999390520685
    vertex 14.898754098463083 119.19483261514053 4.677207723386418
    vertex 23.898754098463023 119.19483261514053 4.677207723386418
  endloop
endfacet
facet normal 1.0 7.879898029455587e-24 5.288090419824613e-16
  outer loop
    vertex 74.898754098463 71.19483385675159 88.00000010577895
    vertex 74.89875409846304 82.99516301116854 4.677208262805512
    vertex 74.898754098463 82.99516425277942 87.99999992993969
  endloop
endfacet
facet normal 1.0 7.879898029455587e-24 5.288090419824613e-16
  outer loop
    vertex 74.89875409846304 82.99516301116854 4.677208262805512
    vertex 74.898754098463 71.19483385675159 88.00000010577895
    vertex 74.89875409846304 71.19483261514071 4.677208438644781
  endloop
endfacet
facet normal 8.717899951938818e-16 -1.0 1.490121340096164e-08
  outer loop
    vertex 18.898754098463076 10.161007898388588 4.677209348123
    vertex 23.898754098463023 10.16100814161803 21.000001015257176
    vertex 18.898754098463076 10.16100814161803 21.000001015257197
  endloop
endfacet
facet normal 8.717899951938818e-16 -1.0 1.490121340096164e-08
  outer loop
    vertex 23.898754098463023 10.16100814161803 21.000001015257176
    vertex 18.898754098463076 10.161007898388588 4.677209348123
    vertex 23.898754098463023 10.161007898388588 4.677209348123
  endloop
endfacet
facet normal 8.717899951938818e-16 -1.0 1.490121340096164e-08
  outer loop
    vertex 23.898754098463023 10.161007898388588 4.677209348123
    vertex 18.898754098463076 10.161007898388588 4.677209348123
    vertex 14.898754098463083 10.161007898388588 4.677209348122966
  endloop
endfacet
facet normal 8.717899951938818e-16 -1.0 1.490121340096164e-08
  outer loop
    vertex 23.898754098463023 10.161007898388588 4.677209348123
    vertex 14.898754098463083 10.161007898388588 4.677209348122966
    vertex 84.898754098463 10.161007898388679 4.677209348122966
  endloop
endfacet
facet normal 8.717899951938818e-16 -1.0 1.490121340096164e-08
  outer loop
    vertex 84.898754098463 10.161007898388679 4.677209348122966
    vertex 14.898754098463083 10.161007898388588 4.677209348122966
    vertex 14.898754098463083 10.161007828692599 1.0152540788510577e-06
  endloop
endfacet
facet normal 8.717899951938818e-16 -1.0 1.490121340096164e-08
  outer loop
    vertex 84.898754098463 10.161007898388679 4.677209348122966
    vertex 14.898754098463083 10.161007828692599 1.0152540788510577e-06
    vertex 84.898754098463 10.161007828692599 1.0152540788510577e-06
  endloop
endfacet
facet normal 0.0 1.0 -1.4901215583564876e-08
  outer loop
    vertex 23.898754098463023 129.69483261514048 4.677207566923646
    vertex 14.898754098463083 129.69483285836992 20.999999234057913
    vertex 23.898754098463023 129.69483285836992 20.999999234057913
  endloop
endfacet
facet normal 0.0 1.0 -1.4901215583564876e-08
  outer loop
    vertex 14.898754098463083 129.69483285836992 20.999999234057913
    vertex 23.898754098463023 129.69483261514048 4.677207566923646
    vertex 14.898754098463083 129.69483261514048 4.677207566923646
  endloop
endfacet
facet normal -2.6389666156787436e-18 1.4901215894229032e-08 1.0
  outer loop
    vertex 84.898754098463 10.161007898388679 4.677209348122966
    vertex 23.898754098463023 20.161007898388526 4.677209199110838
    vertex 23.898754098463023 10.161007898388588 4.677209348123
  endloop
endfacet
facet normal -2.6389666156787436e-18 1.4901215894229032e-08 1.0
  outer loop
    vertex 23.898754098463023 20.161007898388526 4.677209199110838
    vertex 84.898754098463 10.161007898388679 4.677209348122966
    vertex 23.898754098463023 119.19483261514053 4.677207723386418
  endloop
endfacet
facet normal -2.6389666156787436e-18 1.4901215894229032e-08 1.0
  outer loop
    vertex 23.898754098463023 119.19483261514053 4.677207723386418
    vertex 84.898754098463 10.161007898388679 4.677209348122966
    vertex 23.898754098463023 129.69483261514048 4.677207566923646
  endloop
endfacet
facet normal -2.6389666156787436e-18 1.4901215894229032e-08 1.0
  outer loop
    vertex 23.898754098463023 129.69483261514048 4.677207566923646
    vertex 84.898754098463 10.161007898388679 4.677209348122966
    vertex 68.89875409846296 71.19483261514071 4.67720843864477
  endloop
endfacet
facet normal -2.6389666156787436e-18 1.4901215894229032e-08 1.0
  outer loop
    vertex 68.89875409846296 71.19483261514071 4.67720843864477
    vertex 84.898754098463 10.161007898388679 4.677209348122966
    vertex 74.89875409846304 71.19483261514071 4.677208438644781
  endloop
endfacet
facet normal -2.6389666156787436e-18 1.4901215894229032e-08 1.0
  outer loop
    vertex 74.89875409846304 71.19483261514071 4.677208438644781
    vertex 84.898754098463 10.161007898388679 4.677209348122966
    vertex 74.89875409846304 82.99516301116854 4.677208262805512
  endloop
endfacet
facet normal -2.6389666156787436e-18 1.4901215894229032e-08 1.0
  outer loop
    vertex 23.898754098463023 129.69483261514048 4.677207566923646
    vertex 14.89875409846313 146.4255767683153 4.677207317615226
    vertex 14.898754098463083 129.69483261514048 4.677207566923646
  endloop
endfacet
facet normal -2.6389666156787436e-18 1.4901215894229032e-08 1.0
  outer loop
    vertex 14.89875409846313 146.4255767683153 4.677207317615226
    vertex 23.898754098463023 129.69483261514048 4.677207566923646
    vertex 84.898754098463 146.4255767683153 4.677207317615237
  endloop
endfacet
facet normal -2.6389666156787436e-18 1.4901215894229032e-08 1.0
  outer loop
    vertex 84.898754098463 146.4255767683153 4.677207317615237
    vertex 23.898754098463023 129.69483261514048 4.677207566923646
    vertex 68.89875409846296 82.99516301116854 4.677208262805512
  endloop
endfacet
facet normal -2.6389666156787436e-18 1.4901215894229032e-08 1.0
  outer loop
    vertex 68.89875409846296 82.99516301116854 4.677208262805512
    vertex 23.898754098463023 129.69483261514048 4.677207566923646
    vertex 68.89875409846296 71.19483261514071 4.67720843864477
  endloop
endfacet
facet normal -2.6389666156787436e-18 1.4901215894229032e-08 1.0
  outer loop
    vertex 84.898754098463 146.4255767683153 4.677207317615237
    vertex 68.89875409846296 82.99516301116854 4.677208262805512
    vertex 74.89875409846304 82.99516301116854 4.677208262805512
  endloop
endfacet
facet normal -2.6389666156787436e-18 1.4901215894229032e-08 1.0
  outer loop
    vertex 84.898754098463 146.4255767683153 4.677207317615237
    vertex 74.89875409846304 82.99516301116854 4.677208262805512
    vertex 84.898754098463 10.161007898388679 4.677209348122966
  endloop
endfacet
facet normal -2.6389666156787436e-18 1.4901215894229032e-08 1.0
  outer loop
    vertex 18.898754098463076 10.161007898388588 4.677209348123
    vertex 14.898754098463083 119.19483261514053 4.677207723386418
    vertex 14.898754098463083 10.161007898388588 4.677209348122966
  endloop
endfacet
facet normal -2.6389666156787436e-18 1.4901215894229032e-08 1.0
  outer loop
    vertex 14.898754098463083 119.19483261514053 4.677207723386418
    vertex 18.898754098463076 10.161007898388588 4.677209348123
    vertex 18.898754098463076 20.161007898388526 4.677209199110838
  endloop
endfacet
facet normal -2.6389666156787436e-18 1.4901215894229032e-08 1.0
  outer loop
    vertex 14.898754098463083 119.19483261514053 4.677207723386418
    vertex 18.898754098463076 20.161007898388526 4.677209199110838
    vertex 23.898754098463023 119.19483261514053 4.677207723386418
  endloop
endfacet
facet normal -2.6389666156787436e-18 1.4901215894229032e-08 1.0
  outer loop
    vertex 23.898754098463023 119.19483261514053 4.677207723386418
    vertex 18.898754098463076 20.161007898388526 4.677209199110838
    vertex 23.898754098463023 20.161007898388526 4.677209199110838
  endloop
endfacet
facet normal -1.0 -7.879897621437457e-24 -5.288090419824613e-16
  outer loop
    vertex 68.89875409846296 71.19483261514071 4.67720843864477
    vertex 68.89875409846292 82.99516425277942 87.99999992993969
    vertex 68.89875409846296 82.99516301116854 4.677208262805512
  endloop
endfacet
facet normal -1.0 -7.879897621437457e-24 -5.288090419824613e-16
  outer loop
    vertex 68.89875409846292 82.99516425277942 87.99999992993969
    vertex 68.89875409846296 71.19483261514071 4.67720843864477
    vertex 68.89875409846292 71.19483385675159 88.00000010577895
  endloop
endfacet
facet normal -1.0 9.209537934197213e-17 -1.644846245725362e-16
  outer loop
    vertex 14.898754098463083 119.19483285836998 20.999999390520685
    vertex 14.898754098463083 129.69483285836992 20.999999234057913
    vertex 14.898754098463083 119.19483261514053 4.677207723386418
  endloop
endfacet
facet normal -1.0 9.209537934197213e-17 -1.644846245725362e-16
  outer loop
    vertex 14.898754098463083 10.161007828692599 1.0152540788510577e-06
    vertex 14.89875409846313 146.4255767683153 4.677207317615226
    vertex 14.898754098463083 146.4255766986192 -1.0152537066154821e-06
  endloop
endfacet
facet normal -1.0 9.209537934197213e-17 -1.644846245725362e-16
  outer loop
    vertex 14.89875409846313 146.4255767683153 4.677207317615226
    vertex 14.898754098463083 10.161007828692599 1.0152540788510577e-06
    vertex 14.898754098463083 129.69483261514048 4.677207566923646
  endloop
endfacet
facet normal -1.0 9.209537934197213e-17 -1.644846245725362e-16
  outer loop
    vertex 14.898754098463083 129.69483261514048 4.677207566923646
    vertex 14.898754098463083 10.161007828692599 1.0152540788510577e-06
    vertex 14.898754098463083 119.19483261514053 4.677207723386418
  endloop
endfacet
facet normal -1.0 9.209537934197213e-17 -1.644846245725362e-16
  outer loop
    vertex 14.898754098463083 129.69483261514048 4.677207566923646
    vertex 14.898754098463083 119.19483261514053 4.677207723386418
    vertex 14.898754098463083 129.69483285836992 20.999999234057913
  endloop
endfacet
facet normal -1.0 9.209537934197213e-17 -1.644846245725362e-16
  outer loop
    vertex 14.898754098463083 119.19483261514053 4.677207723386418
    vertex 14.898754098463083 10.161007828692599 1.0152540788510577e-06
    vertex 14.898754098463083 10.161007898388588 4.677209348122966
  endloop
endfacet
facet normal 3.759955310063926e-15 1.4901215583564876e-08 1.0
  outer loop
    vertex 22.898754098463023 11.161008171420448 23.00000100035596
    vertex 19.898754098463073 19.161008171420388 23.000000881146256
    vertex 19.898754098463073 11.161008171420448 23.000001000355972
  endloop
endfacet
facet normal 3.759955310063926e-15 1.4901215583564876e-08 1.0
  outer loop
    vertex 19.898754098463073 19.161008171420388 23.000000881146256
    vertex 22.898754098463023 11.161008171420448 23.00000100035596
    vertex 22.898754098463023 19.161008171420388 23.000000881146246
  endloop
endfacet
facet normal -4.699944137579767e-16 1.4901216061511915e-08 1.0
  outer loop
    vertex 74.898754098463 71.19483385675159 88.00000010577895
    vertex 68.89875409846292 82.99516425277942 87.99999992993969
    vertex 68.89875409846292 71.19483385675159 88.00000010577895
  endloop
endfacet
facet normal -4.699944137579767e-16 1.4901216061511915e-08 1.0
  outer loop
    vertex 68.89875409846292 82.99516425277942 87.99999992993969
    vertex 74.898754098463 71.19483385675159 88.00000010577895
    vertex 74.898754098463 82.99516425277942 87.99999992993969
  endloop
endfacet
facet normal 3.383959779057514e-15 1.4901215019571578e-08 1.0
  outer loop
    vertex 18.898754098463076 10.16100814161803 21.000001015257197
    vertex 19.898754098463073 11.161008141618028 21.000001000355976
    vertex 18.898754098463076 20.161008141617966 21.00000086624504
  endloop
endfacet
facet normal 3.383959779057514e-15 1.4901215019571578e-08 1.0
  outer loop
    vertex 19.898754098463073 11.161008141618028 21.000001000355976
    vertex 18.898754098463076 10.16100814161803 21.000001015257197
    vertex 23.898754098463023 10.16100814161803 21.000001015257176
  endloop
endfacet
facet normal 3.383959779057514e-15 1.4901215019571578e-08 1.0
  outer loop
    vertex 19.898754098463073 11.161008141618028 21.000001000355976
    vertex 23.898754098463023 10.16100814161803 21.000001015257176
    vertex 22.898754098463023 11.161008141618028 21.000001000355965
  endloop
endfacet
facet normal 3.383959779057514e-15 1.4901215019571578e-08 1.0
  outer loop
    vertex 22.898754098463023 11.161008141618028 21.000001000355965
    vertex 23.898754098463023 10.16100814161803 21.000001015257176
    vertex 22.898754098463023 19.16100814161797 21.00000088114625
  endloop
endfacet
facet normal 3.383959779057514e-15 1.4901215019571578e-08 1.0
  outer loop
    vertex 18.898754098463076 20.161008141617966 21.00000086624504
    vertex 19.898754098463073 19.16100814161797 21.00000088114626
    vertex 23.898754098463023 20.161008141617966 21.000000866245028
  endloop
endfacet
facet normal 3.383959779057514e-15 1.4901215019571578e-08 1.0
  outer loop
    vertex 19.898754098463073 19.16100814161797 21.00000088114626
    vertex 18.898754098463076 20.161008141617966 21.00000086624504
    vertex 19.898754098463073 11.161008141618028 21.000001000355976
  endloop
endfacet
facet normal 3.383959779057514e-15 1.4901215019571578e-08 1.0
  outer loop
    vertex 23.898754098463023 20.161008141617966 21.000000866245028
    vertex 19.898754098463073 19.16100814161797 21.00000088114626
    vertex 22.898754098463023 19.16100814161797 21.00000088114625
  endloop
endfacet
facet normal 3.383959779057514e-15 1.4901215019571578e-08 1.0
  outer loop
    vertex 23.898754098463023 20.161008141617966 21.000000866245028
    vertex 22.898754098463023 19.16100814161797 21.00000088114625
    vertex 23.898754098463023 10.16100814161803 21.000001015257176
  endloop
endfacet
facet normal 1.0 -4.006227631743836e-23 -2.6885240397182487e-15
  outer loop
    vertex 22.898754098463023 11.161008171420448 23.00000100035596
    vertex 22.898754098463023 19.16100814161797 21.00000088114625
    vertex 22.898754098463023 19.161008171420388 23.000000881146246
  endloop
endfacet
facet normal 1.0 -4.006227631743836e-23 -2.6885240397182487e-15
  outer loop
    vertex 22.898754098463023 19.16100814161797 21.00000088114625
    vertex 22.898754098463023 11.161008171420448 23.00000100035596
    vertex 22.898754098463023 11.161008141618028 21.000001000355965
  endloop
endfacet
facet normal -2.157158945162201e-31 -1.0 1.4901215526192945e-08
  outer loop
    vertex 19.898754098463073 11.161008141618028 21.000001000355976
    vertex 22.898754098463023 11.161008171420448 23.00000100035596
    vertex 19.898754098463073 11.161008171420448 23.000001000355972
  endloop
endfacet
facet normal -2.157158945162201e-31 -1.0 1.4901215526192945e-08
  outer loop
    vertex 22.898754098463023 11.161008171420448 23.00000100035596
    vertex 19.898754098463073 11.161008141618028 21.000001000355976
    vertex 22.898754098463023 11.161008141618028 21.000001000355965
  endloop
endfacet
facet normal -1.0 4.006227631743836e-23 2.6885240397182487e-15
  outer loop
    vertex 19.898754098463073 11.161008141618028 21.000001000355976
    vertex 19.898754098463073 19.161008171420388 23.000000881146256
    vertex 19.898754098463073 19.16100814161797 21.00000088114626
  endloop
endfacet
facet normal -1.0 4.006227631743836e-23 2.6885240397182487e-15
  outer loop
    vertex 19.898754098463073 19.161008171420388 23.000000881146256
    vertex 19.898754098463073 11.161008141618028 21.000001000355976
    vertex 19.898754098463073 11.161008171420448 23.000001000355972
  endloop
endfacet
facet normal 2.157158945162201e-31 1.0 -1.4901215526192945e-08
  outer loop
    vertex 22.898754098463023 19.161008171420388 23.000000881146246
    vertex 19.898754098463073 19.16100814161797 21.00000088114626
    vertex 19.898754098463073 19.161008171420388 23.000000881146256
  endloop
endfacet
facet normal 2.157158945162201e-31 1.0 -1.4901215526192945e-08
  outer loop
    vertex 19.898754098463073 19.16100814161797 21.00000088114626
    vertex 22.898754098463023 19.161008171420388 23.000000881146246
    vertex 22.898754098463023 19.16100814161797 21.00000088114625
  endloop
endfacet
facet normal 0.0 1.4901215583564876e-08 1.0
  outer loop
    vertex 22.898754098463023 120.19483288817244 22.999999375619424
    vertex 15.898754098463082 128.6948328881723 22.999999248959096
    vertex 15.898754098463082 120.19483288817244 22.999999375619424
  endloop
endfacet
facet normal 0.0 1.4901215583564876e-08 1.0
  outer loop
    vertex 15.898754098463082 128.6948328881723 22.999999248959096
    vertex 22.898754098463023 120.19483288817244 22.999999375619424
    vertex 22.898754098463023 128.6948328881723 22.999999248959096
  endloop
endfacet
facet normal 0.0 1.4901215583564876e-08 1.0
  outer loop
    vertex 14.898754098463083 119.19483285836998 20.999999390520685
    vertex 15.898754098463082 120.19483285837002 20.999999375619463
    vertex 14.898754098463083 129.69483285836992 20.999999234057913
  endloop
endfacet
facet normal 0.0 1.4901215583564876e-08 1.0
  outer loop
    vertex 15.898754098463082 120.19483285837002 20.999999375619463
    vertex 14.898754098463083 119.19483285836998 20.999999390520685
    vertex 23.898754098463023 119.19483285836998 20.999999390520685
  endloop
endfacet
facet normal 0.0 1.4901215583564876e-08 1.0
  outer loop
    vertex 15.898754098463082 120.19483285837002 20.999999375619463
    vertex 23.898754098463023 119.19483285836998 20.999999390520685
    vertex 22.898754098463023 120.19483285837002 20.999999375619463
  endloop
endfacet
facet normal 0.0 1.4901215583564876e-08 1.0
  outer loop
    vertex 22.898754098463023 120.19483285837002 20.999999375619463
    vertex 23.898754098463023 119.19483285836998 20.999999390520685
    vertex 22.898754098463023 128.6948328583699 20.999999248959135
  endloop
endfacet
facet normal 0.0 1.4901215583564876e-08 1.0
  outer loop
    vertex 14.898754098463083 129.69483285836992 20.999999234057913
    vertex 15.898754098463082 128.6948328583699 20.999999248959135
    vertex 23.898754098463023 129.69483285836992 20.999999234057913
  endloop
endfacet
facet normal 0.0 1.4901215583564876e-08 1.0
  outer loop
    vertex 15.898754098463082 128.6948328583699 20.999999248959135
    vertex 14.898754098463083 129.69483285836992 20.999999234057913
    vertex 15.898754098463082 120.19483285837002 20.999999375619463
  endloop
endfacet
facet normal 0.0 1.4901215583564876e-08 1.0
  outer loop
    vertex 23.898754098463023 129.69483285836992 20.999999234057913
    vertex 15.898754098463082 128.6948328583699 20.999999248959135
    vertex 22.898754098463023 128.6948328583699 20.999999248959135
  endloop
endfacet
facet normal 0.0 1.4901215583564876e-08 1.0
  outer loop
    vertex 23.898754098463023 129.69483285836992 20.999999234057913
    vertex 22.898754098463023 128.6948328583699 20.999999248959135
    vertex 23.898754098463023 119.19483285836998 20.999999390520685
  endloop
endfacet
facet normal 1.0 0.0 0.0
  outer loop
    vertex 22.898754098463023 120.19483288817244 22.999999375619424
    vertex 22.898754098463023 128.6948328583699 20.999999248959135
    vertex 22.898754098463023 128.6948328881723 22.999999248959096
  endloop
endfacet
facet normal 1.0 0.0 0.0
  outer loop
    vertex 22.898754098463023 128.6948328583699 20.999999248959135
    vertex 22.898754098463023 120.19483288817244 22.999999375619424
    vertex 22.898754098463023 120.19483285837002 20.999999375619463
  endloop
endfacet
facet normal 0.0 -1.0 1.4901215583564876e-08
  outer loop
    vertex 15.898754098463082 120.19483285837002 20.999999375619463
    vertex 22.898754098463023 120.19483288817244 22.999999375619424
    vertex 15.898754098463082 120.19483288817244 22.999999375619424
  endloop
endfacet
facet normal 0.0 -1.0 1.4901215583564876e-08
  outer loop
    vertex 22.898754098463023 120.19483288817244 22.999999375619424
    vertex 15.898754098463082 120.19483285837002 20.999999375619463
    vertex 22.898754098463023 120.19483285837002 20.999999375619463
  endloop
endfacet
facet normal -1.0 0.0 0.0
  outer loop
    vertex 15.898754098463082 120.19483285837002 20.999999375619463
    vertex 15.898754098463082 128.6948328881723 22.999999248959096
    vertex 15.898754098463082 128.6948328583699 20.999999248959135
  endloop
endfacet
facet normal -1.0 0.0 0.0
  outer loop
    vertex 15.898754098463082 128.6948328881723 22.999999248959096
    vertex 15.898754098463082 120.19483285837002 20.999999375619463
    vertex 15.898754098463082 120.19483288817244 22.999999375619424
  endloop
endfacet
facet normal 0.0 1.0 -1.4901215583564876e-08
  outer loop
    vertex 22.898754098463023 128.6948328583699 20.999999248959135
    vertex 15.898754098463082 128.6948328881723 22.999999248959096
    vertex 22.898754098463023 128.6948328881723 22.999999248959096
  endloop
endfacet
facet normal 0.0 1.0 -1.4901215583564876e-08
  outer loop
    vertex 15.898754098463082 128.6948328881723 22.999999248959096
    vertex 22.898754098463023 128.6948328583699 20.999999248959135
    vertex 15.898754098463082 128.6948328583699 20.999999248959135
  endloop
endfacet
endsolid qi_holder
