solid OpenSCAD_Model
  facet normal 0.994522 0.104529 0
    outer loop
      vertex 3.5 0 20
      vertex 3.42352 0.727691 0
      vertex 3.42352 0.727691 20
    endloop
  endfacet
  facet normal 0.994522 0.104529 0
    outer loop
      vertex 3.42352 0.727691 0
      vertex 3.5 0 20
      vertex 3.5 0 0
    endloop
  endfacet
  facet normal -0.994522 0.104529 0
    outer loop
      vertex -3.5 0 0
      vertex -3.42352 0.727691 20
      vertex -3.42352 0.727691 0
    endloop
  endfacet
  facet normal -0.994522 0.104529 0
    outer loop
      vertex -3.42352 0.727691 20
      vertex -3.5 0 0
      vertex -3.5 0 20
    endloop
  endfacet
  facet normal 0 -1 0
    outer loop
      vertex -0.365849 -3.48083 0
      vertex 0.365849 -3.48083 20
      vertex -0.365849 -3.48083 20
    endloop
  endfacet
  facet normal 0 -1 -0
    outer loop
      vertex 0.365849 -3.48083 20
      vertex -0.365849 -3.48083 0
      vertex 0.365849 -3.48083 0
    endloop
  endfacet
  facet normal 0.951056 -0.309017 0
    outer loop
      vertex 3.19741 -1.42358 20
      vertex 3.42352 -0.727691 0
      vertex 3.42352 -0.727691 20
    endloop
  endfacet
  facet normal 0.951056 -0.309017 0
    outer loop
      vertex 3.42352 -0.727691 0
      vertex 3.19741 -1.42358 20
      vertex 3.19741 -1.42358 0
    endloop
  endfacet
  facet normal 0.866026 0.499999 0
    outer loop
      vertex 3.19741 1.42358 20
      vertex 2.83156 2.05725 0
      vertex 2.83156 2.05725 20
    endloop
  endfacet
  facet normal 0.866026 0.499999 0
    outer loop
      vertex 2.83156 2.05725 0
      vertex 3.19741 1.42358 20
      vertex 3.19741 1.42358 0
    endloop
  endfacet
  facet normal 0.951056 0.309017 0
    outer loop
      vertex 3.42352 0.727691 20
      vertex 3.19741 1.42358 0
      vertex 3.19741 1.42358 20
    endloop
  endfacet
  facet normal 0.951056 0.309017 0
    outer loop
      vertex 3.19741 1.42358 0
      vertex 3.42352 0.727691 20
      vertex 3.42352 0.727691 0
    endloop
  endfacet
  facet normal 0.743145 0.66913 0
    outer loop
      vertex 2.83156 2.05725 20
      vertex 2.4329 2.5 0
      vertex 2.4329 2.5 20
    endloop
  endfacet
  facet normal 0.743145 0.66913 0
    outer loop
      vertex 2.4329 2.5 0
      vertex 2.83156 2.05725 20
      vertex 2.83156 2.05725 0
    endloop
  endfacet
  facet normal -0.866026 0.499999 0
    outer loop
      vertex -3.19741 1.42358 0
      vertex -2.83156 2.05725 20
      vertex -2.83156 2.05725 0
    endloop
  endfacet
  facet normal -0.866026 0.499999 0
    outer loop
      vertex -2.83156 2.05725 20
      vertex -3.19741 1.42358 0
      vertex -3.19741 1.42358 20
    endloop
  endfacet
  facet normal -0.743145 0.66913 0
    outer loop
      vertex -2.83156 2.05725 0
      vertex -2.4329 2.5 20
      vertex -2.4329 2.5 0
    endloop
  endfacet
  facet normal -0.743145 0.66913 0
    outer loop
      vertex -2.4329 2.5 20
      vertex -2.83156 2.05725 0
      vertex -2.83156 2.05725 20
    endloop
  endfacet
  facet normal -0.951056 0.309017 0
    outer loop
      vertex -3.42352 0.727691 0
      vertex -3.19741 1.42358 20
      vertex -3.19741 1.42358 0
    endloop
  endfacet
  facet normal -0.951056 0.309017 0
    outer loop
      vertex -3.19741 1.42358 20
      vertex -3.42352 0.727691 0
      vertex -3.42352 0.727691 20
    endloop
  endfacet
  facet normal 0 0 1
    outer loop
      vertex 3.5 9.5 20
      vertex 2.5 8.5 20
      vertex 3.5 2.5 20
    endloop
  endfacet
  facet normal 0 0 1
    outer loop
      vertex 3.5 9.5 20
      vertex -2.5 8.5 20
      vertex 2.5 8.5 20
    endloop
  endfacet
  facet normal 0 0 1
    outer loop
      vertex -2.5 8.5 20
      vertex -3.5 9.5 20
      vertex -2.5 3.5 20
    endloop
  endfacet
  facet normal -0 0 1
    outer loop
      vertex -3.5 9.5 20
      vertex -2.5 8.5 20
      vertex 3.5 9.5 20
    endloop
  endfacet
  facet normal -0 0 1
    outer loop
      vertex 2.5 3.5 20
      vertex 3.5 2.5 20
      vertex 2.5 8.5 20
    endloop
  endfacet
  facet normal 0 0 1
    outer loop
      vertex 2.5 3.5 20
      vertex 2.4329 2.5 20
      vertex 3.5 2.5 20
    endloop
  endfacet
  facet normal 0 0 1
    outer loop
      vertex 1.25 2.16506 20
      vertex 2.4329 2.5 20
      vertex 2.5 3.5 20
    endloop
  endfacet
  facet normal 0 0 1
    outer loop
      vertex 2.4329 2.5 20
      vertex 2.02254 1.46946 20
      vertex 2.28386 1.01684 20
    endloop
  endfacet
  facet normal 0 0 1
    outer loop
      vertex 2.4329 2.5 20
      vertex 1.67283 1.85786 20
      vertex 2.02254 1.46946 20
    endloop
  endfacet
  facet normal 0 0 1
    outer loop
      vertex 2.4329 2.5 20
      vertex 1.25 2.16506 20
      vertex 1.67283 1.85786 20
    endloop
  endfacet
  facet normal 0 0 1
    outer loop
      vertex 2.5 3.5 20
      vertex 0.772542 2.37764 20
      vertex 1.25 2.16506 20
    endloop
  endfacet
  facet normal 0 0 1
    outer loop
      vertex 2.5 3.5 20
      vertex 0.261321 2.4863 20
      vertex 0.772542 2.37764 20
    endloop
  endfacet
  facet normal 0 0 1
    outer loop
      vertex 2.5 3.5 20
      vertex -0.261321 2.4863 20
      vertex 0.261321 2.4863 20
    endloop
  endfacet
  facet normal -0 0 1
    outer loop
      vertex -2.5 3.5 20
      vertex -0.261321 2.4863 20
      vertex 2.5 3.5 20
    endloop
  endfacet
  facet normal -0 0 1
    outer loop
      vertex -2.83156 2.05725 20
      vertex -2.02254 1.46946 20
      vertex -2.4329 2.5 20
    endloop
  endfacet
  facet normal 0 0 1
    outer loop
      vertex -1.67283 1.85786 20
      vertex -2.4329 2.5 20
      vertex -2.02254 1.46946 20
    endloop
  endfacet
  facet normal 0 0 1
    outer loop
      vertex -1.25 2.16506 20
      vertex -2.4329 2.5 20
      vertex -1.67283 1.85786 20
    endloop
  endfacet
  facet normal 0 0 1
    outer loop
      vertex -2.5 3.5 20
      vertex -1.25 2.16506 20
      vertex -0.772542 2.37764 20
    endloop
  endfacet
  facet normal 0 0 1
    outer loop
      vertex -0.261321 2.4863 20
      vertex -2.5 3.5 20
      vertex -0.772542 2.37764 20
    endloop
  endfacet
  facet normal 0 0 1
    outer loop
      vertex -1.25 2.16506 20
      vertex -2.5 3.5 20
      vertex -2.4329 2.5 20
    endloop
  endfacet
  facet normal 0 0 1
    outer loop
      vertex -3.5 2.5 20
      vertex -2.5 3.5 20
      vertex -3.5 9.5 20
    endloop
  endfacet
  facet normal 0 0 1
    outer loop
      vertex -2.5 3.5 20
      vertex -3.5 2.5 20
      vertex -2.4329 2.5 20
    endloop
  endfacet
  facet normal 0 0 1
    outer loop
      vertex 2.5 0 20
      vertex 3.5 0 20
      vertex 3.42352 0.727691 20
    endloop
  endfacet
  facet normal 0 0 1
    outer loop
      vertex 2.44537 0.519779 20
      vertex 3.42352 0.727691 20
      vertex 3.19741 1.42358 20
    endloop
  endfacet
  facet normal 0 0 1
    outer loop
      vertex 3.5 0 20
      vertex 2.5 0 20
      vertex 3.42352 -0.727691 20
    endloop
  endfacet
  facet normal 0 0 1
    outer loop
      vertex 2.28386 1.01684 20
      vertex 3.19741 1.42358 20
      vertex 2.83156 2.05725 20
    endloop
  endfacet
  facet normal -0 0 1
    outer loop
      vertex 2.44537 -0.519779 20
      vertex 3.42352 -0.727691 20
      vertex 2.5 0 20
    endloop
  endfacet
  facet normal 0 0 1
    outer loop
      vertex 3.42352 -0.727691 20
      vertex 2.44537 -0.519779 20
      vertex 3.19741 -1.42358 20
    endloop
  endfacet
  facet normal 0 0 1
    outer loop
      vertex 3.42352 0.727691 20
      vertex 2.44537 0.519779 20
      vertex 2.5 0 20
    endloop
  endfacet
  facet normal 0 0 1
    outer loop
      vertex 2.28386 1.01684 20
      vertex 2.83156 2.05725 20
      vertex 2.4329 2.5 20
    endloop
  endfacet
  facet normal 0 0 1
    outer loop
      vertex 3.19741 1.42358 20
      vertex 2.28386 1.01684 20
      vertex 2.44537 0.519779 20
    endloop
  endfacet
  facet normal -0 0 1
    outer loop
      vertex 2.28386 -1.01684 20
      vertex 3.19741 -1.42358 20
      vertex 2.44537 -0.519779 20
    endloop
  endfacet
  facet normal 0 0 1
    outer loop
      vertex 3.19741 -1.42358 20
      vertex 2.28386 -1.01684 20
      vertex 2.83156 -2.05725 20
    endloop
  endfacet
  facet normal -0 0 1
    outer loop
      vertex 2.02254 -1.46946 20
      vertex 2.83156 -2.05725 20
      vertex 2.28386 -1.01684 20
    endloop
  endfacet
  facet normal 0 0 1
    outer loop
      vertex 2.83156 -2.05725 20
      vertex 2.02254 -1.46946 20
      vertex 2.34196 -2.60101 20
    endloop
  endfacet
  facet normal -0 0 1
    outer loop
      vertex 1.67283 -1.85786 20
      vertex 2.34196 -2.60101 20
      vertex 2.02254 -1.46946 20
    endloop
  endfacet
  facet normal 0 0 1
    outer loop
      vertex 2.34196 -2.60101 20
      vertex 1.67283 -1.85786 20
      vertex 1.75 -3.03109 20
    endloop
  endfacet
  facet normal -0 0 1
    outer loop
      vertex 1.25 -2.16506 20
      vertex 1.75 -3.03109 20
      vertex 1.67283 -1.85786 20
    endloop
  endfacet
  facet normal 0 0 1
    outer loop
      vertex 1.25 -2.16506 20
      vertex 1.08156 -3.3287 20
      vertex 1.75 -3.03109 20
    endloop
  endfacet
  facet normal -0 0 1
    outer loop
      vertex 0.772542 -2.37764 20
      vertex 1.08156 -3.3287 20
      vertex 1.25 -2.16506 20
    endloop
  endfacet
  facet normal 0 0 1
    outer loop
      vertex 0.772542 -2.37764 20
      vertex 0.365849 -3.48083 20
      vertex 1.08156 -3.3287 20
    endloop
  endfacet
  facet normal -0 0 1
    outer loop
      vertex 0.261321 -2.4863 20
      vertex 0.365849 -3.48083 20
      vertex 0.772542 -2.37764 20
    endloop
  endfacet
  facet normal -0 0 1
    outer loop
      vertex -0.261321 -2.4863 20
      vertex 0.365849 -3.48083 20
      vertex 0.261321 -2.4863 20
    endloop
  endfacet
  facet normal 0 0 1
    outer loop
      vertex -0.261321 -2.4863 20
      vertex -0.365849 -3.48083 20
      vertex 0.365849 -3.48083 20
    endloop
  endfacet
  facet normal 0 0 1
    outer loop
      vertex -0.772542 -2.37764 20
      vertex -0.365849 -3.48083 20
      vertex -0.261321 -2.4863 20
    endloop
  endfacet
  facet normal 0 0 1
    outer loop
      vertex -0.772542 -2.37764 20
      vertex -1.08156 -3.3287 20
      vertex -0.365849 -3.48083 20
    endloop
  endfacet
  facet normal 0 0 1
    outer loop
      vertex -1.25 -2.16506 20
      vertex -1.08156 -3.3287 20
      vertex -0.772542 -2.37764 20
    endloop
  endfacet
  facet normal 0 0 1
    outer loop
      vertex -1.75 -3.03109 20
      vertex -1.25 -2.16506 20
      vertex -1.67283 -1.85786 20
    endloop
  endfacet
  facet normal 0 0 1
    outer loop
      vertex -1.25 -2.16506 20
      vertex -1.75 -3.03109 20
      vertex -1.08156 -3.3287 20
    endloop
  endfacet
  facet normal 0 0 1
    outer loop
      vertex -2.34196 -2.60101 20
      vertex -1.67283 -1.85786 20
      vertex -2.02254 -1.46946 20
    endloop
  endfacet
  facet normal 0 0 1
    outer loop
      vertex -2.83156 -2.05725 20
      vertex -2.02254 -1.46946 20
      vertex -2.28386 -1.01684 20
    endloop
  endfacet
  facet normal 0 0 1
    outer loop
      vertex -1.67283 -1.85786 20
      vertex -2.34196 -2.60101 20
      vertex -1.75 -3.03109 20
    endloop
  endfacet
  facet normal 0 0 1
    outer loop
      vertex -3.19741 -1.42358 20
      vertex -2.28386 -1.01684 20
      vertex -2.44537 -0.519779 20
    endloop
  endfacet
  facet normal 0 0 1
    outer loop
      vertex -3.42352 -0.727691 20
      vertex -2.44537 -0.519779 20
      vertex -2.5 0 20
    endloop
  endfacet
  facet normal -0 0 1
    outer loop
      vertex -3.42352 0.727691 20
      vertex -2.44537 0.519779 20
      vertex -3.19741 1.42358 20
    endloop
  endfacet
  facet normal 0 0 1
    outer loop
      vertex -2.02254 -1.46946 20
      vertex -2.83156 -2.05725 20
      vertex -2.34196 -2.60101 20
    endloop
  endfacet
  facet normal 0 0 1
    outer loop
      vertex -2.44537 0.519779 20
      vertex -3.42352 0.727691 20
      vertex -2.5 0 20
    endloop
  endfacet
  facet normal 0 0 1
    outer loop
      vertex -2.28386 -1.01684 20
      vertex -3.19741 -1.42358 20
      vertex -2.83156 -2.05725 20
    endloop
  endfacet
  facet normal 0 0 1
    outer loop
      vertex -3.5 0 20
      vertex -2.5 0 20
      vertex -3.42352 0.727691 20
    endloop
  endfacet
  facet normal 0 0 1
    outer loop
      vertex -2.44537 -0.519779 20
      vertex -3.42352 -0.727691 20
      vertex -3.19741 -1.42358 20
    endloop
  endfacet
  facet normal 0 0 1
    outer loop
      vertex -2.5 0 20
      vertex -3.5 0 20
      vertex -3.42352 -0.727691 20
    endloop
  endfacet
  facet normal 0 0 1
    outer loop
      vertex -2.02254 1.46946 20
      vertex -2.83156 2.05725 20
      vertex -2.28386 1.01684 20
    endloop
  endfacet
  facet normal -0 0 1
    outer loop
      vertex -3.19741 1.42358 20
      vertex -2.28386 1.01684 20
      vertex -2.83156 2.05725 20
    endloop
  endfacet
  facet normal 0 0 1
    outer loop
      vertex -2.28386 1.01684 20
      vertex -3.19741 1.42358 20
      vertex -2.44537 0.519779 20
    endloop
  endfacet
  facet normal 0.994522 -0.104529 0
    outer loop
      vertex 3.42352 -0.727691 20
      vertex 3.5 0 0
      vertex 3.5 0 20
    endloop
  endfacet
  facet normal 0.994522 -0.104529 0
    outer loop
      vertex 3.5 0 0
      vertex 3.42352 -0.727691 20
      vertex 3.42352 -0.727691 0
    endloop
  endfacet
  facet normal 0 0 -1
    outer loop
      vertex 2.5 0 0
      vertex 3.5 0 0
      vertex 3.42352 -0.727691 0
    endloop
  endfacet
  facet normal 0 0 -1
    outer loop
      vertex 2.44537 -0.519779 0
      vertex 3.42352 -0.727691 0
      vertex 3.19741 -1.42358 0
    endloop
  endfacet
  facet normal 0 0 -1
    outer loop
      vertex 3.5 0 0
      vertex 2.5 0 0
      vertex 3.42352 0.727691 0
    endloop
  endfacet
  facet normal 0 0 -1
    outer loop
      vertex 2.28386 -1.01684 0
      vertex 3.19741 -1.42358 0
      vertex 2.83156 -2.05725 0
    endloop
  endfacet
  facet normal 0 0 -1
    outer loop
      vertex 2.44537 0.519779 0
      vertex 3.42352 0.727691 0
      vertex 2.5 0 0
    endloop
  endfacet
  facet normal -0 0 -1
    outer loop
      vertex 3.42352 0.727691 0
      vertex 2.44537 0.519779 0
      vertex 3.19741 1.42358 0
    endloop
  endfacet
  facet normal 0 0 -1
    outer loop
      vertex 3.42352 -0.727691 0
      vertex 2.44537 -0.519779 0
      vertex 2.5 0 0
    endloop
  endfacet
  facet normal 0 0 -1
    outer loop
      vertex 2.02254 -1.46946 0
      vertex 2.83156 -2.05725 0
      vertex 2.34196 -2.60101 0
    endloop
  endfacet
  facet normal 0 0 -1
    outer loop
      vertex 3.19741 -1.42358 0
      vertex 2.28386 -1.01684 0
      vertex 2.44537 -0.519779 0
    endloop
  endfacet
  facet normal 0 0 -1
    outer loop
      vertex 2.83156 -2.05725 0
      vertex 2.02254 -1.46946 0
      vertex 2.28386 -1.01684 0
    endloop
  endfacet
  facet normal 0 0 -1
    outer loop
      vertex 1.67283 -1.85786 0
      vertex 2.34196 -2.60101 0
      vertex 1.75 -3.03109 0
    endloop
  endfacet
  facet normal 0 0 -1
    outer loop
      vertex 2.34196 -2.60101 0
      vertex 1.67283 -1.85786 0
      vertex 2.02254 -1.46946 0
    endloop
  endfacet
  facet normal 0 0 -1
    outer loop
      vertex 1.75 -3.03109 0
      vertex 1.25 -2.16506 0
      vertex 1.67283 -1.85786 0
    endloop
  endfacet
  facet normal 0 0 -1
    outer loop
      vertex 1.08156 -3.3287 0
      vertex 1.25 -2.16506 0
      vertex 1.75 -3.03109 0
    endloop
  endfacet
  facet normal 0 0 -1
    outer loop
      vertex 1.08156 -3.3287 0
      vertex 0.772542 -2.37764 0
      vertex 1.25 -2.16506 0
    endloop
  endfacet
  facet normal 0 0 -1
    outer loop
      vertex 0.365849 -3.48083 0
      vertex 0.772542 -2.37764 0
      vertex 1.08156 -3.3287 0
    endloop
  endfacet
  facet normal 0 0 -1
    outer loop
      vertex 0.365849 -3.48083 0
      vertex 0.261321 -2.4863 0
      vertex 0.772542 -2.37764 0
    endloop
  endfacet
  facet normal 0 0 -1
    outer loop
      vertex 0.365849 -3.48083 0
      vertex -0.261321 -2.4863 0
      vertex 0.261321 -2.4863 0
    endloop
  endfacet
  facet normal 0 0 -1
    outer loop
      vertex -0.365849 -3.48083 0
      vertex -0.261321 -2.4863 0
      vertex 0.365849 -3.48083 0
    endloop
  endfacet
  facet normal 0 0 -1
    outer loop
      vertex -0.365849 -3.48083 0
      vertex -0.772542 -2.37764 0
      vertex -0.261321 -2.4863 0
    endloop
  endfacet
  facet normal 0 0 -1
    outer loop
      vertex -1.08156 -3.3287 0
      vertex -0.772542 -2.37764 0
      vertex -0.365849 -3.48083 0
    endloop
  endfacet
  facet normal 0 0 -1
    outer loop
      vertex -1.08156 -3.3287 0
      vertex -1.25 -2.16506 0
      vertex -0.772542 -2.37764 0
    endloop
  endfacet
  facet normal 0 0 -1
    outer loop
      vertex -1.75 -3.03109 0
      vertex -1.25 -2.16506 0
      vertex -1.08156 -3.3287 0
    endloop
  endfacet
  facet normal -0 0 -1
    outer loop
      vertex -1.25 -2.16506 0
      vertex -1.75 -3.03109 0
      vertex -1.67283 -1.85786 0
    endloop
  endfacet
  facet normal 0 0 -1
    outer loop
      vertex -2.34196 -2.60101 0
      vertex -1.67283 -1.85786 0
      vertex -1.75 -3.03109 0
    endloop
  endfacet
  facet normal -0 0 -1
    outer loop
      vertex -1.67283 -1.85786 0
      vertex -2.34196 -2.60101 0
      vertex -2.02254 -1.46946 0
    endloop
  endfacet
  facet normal 0 0 -1
    outer loop
      vertex -2.83156 -2.05725 0
      vertex -2.02254 -1.46946 0
      vertex -2.34196 -2.60101 0
    endloop
  endfacet
  facet normal -0 0 -1
    outer loop
      vertex -2.02254 -1.46946 0
      vertex -2.83156 -2.05725 0
      vertex -2.28386 -1.01684 0
    endloop
  endfacet
  facet normal 0 0 -1
    outer loop
      vertex -3.19741 -1.42358 0
      vertex -2.28386 -1.01684 0
      vertex -2.83156 -2.05725 0
    endloop
  endfacet
  facet normal -0 0 -1
    outer loop
      vertex -2.28386 -1.01684 0
      vertex -3.19741 -1.42358 0
      vertex -2.44537 -0.519779 0
    endloop
  endfacet
  facet normal 0 0 -1
    outer loop
      vertex 2.28386 1.01684 0
      vertex 3.19741 1.42358 0
      vertex 2.44537 0.519779 0
    endloop
  endfacet
  facet normal -0 0 -1
    outer loop
      vertex 3.19741 1.42358 0
      vertex 2.28386 1.01684 0
      vertex 2.83156 2.05725 0
    endloop
  endfacet
  facet normal 0 0 -1
    outer loop
      vertex 2.02254 1.46946 0
      vertex 2.83156 2.05725 0
      vertex 2.28386 1.01684 0
    endloop
  endfacet
  facet normal 0 0 -1
    outer loop
      vertex 3.5 2.5 0
      vertex 2.5 3.5 0
      vertex 3.5 9.5 0
    endloop
  endfacet
  facet normal 0 0 -1
    outer loop
      vertex 2.4329 2.5 0
      vertex 2.5 3.5 0
      vertex 3.5 2.5 0
    endloop
  endfacet
  facet normal -0 0 -1
    outer loop
      vertex 2.83156 2.05725 0
      vertex 2.02254 1.46946 0
      vertex 2.4329 2.5 0
    endloop
  endfacet
  facet normal 0 0 -1
    outer loop
      vertex 1.67283 1.85786 0
      vertex 2.4329 2.5 0
      vertex 2.02254 1.46946 0
    endloop
  endfacet
  facet normal 0 0 -1
    outer loop
      vertex 1.25 2.16506 0
      vertex 2.4329 2.5 0
      vertex 1.67283 1.85786 0
    endloop
  endfacet
  facet normal -0 0 -1
    outer loop
      vertex 2.4329 2.5 0
      vertex 1.25 2.16506 0
      vertex 2.5 3.5 0
    endloop
  endfacet
  facet normal 0 0 -1
    outer loop
      vertex 0.772542 2.37764 0
      vertex 2.5 3.5 0
      vertex 1.25 2.16506 0
    endloop
  endfacet
  facet normal 0 0 -1
    outer loop
      vertex 0.261321 2.4863 0
      vertex 2.5 3.5 0
      vertex 0.772542 2.37764 0
    endloop
  endfacet
  facet normal 0 0 -1
    outer loop
      vertex -0.261321 2.4863 0
      vertex 2.5 3.5 0
      vertex 0.261321 2.4863 0
    endloop
  endfacet
  facet normal 0 0 -1
    outer loop
      vertex -2.5 3.5 0
      vertex -0.261321 2.4863 0
      vertex -0.772542 2.37764 0
    endloop
  endfacet
  facet normal 0 0 -1
    outer loop
      vertex -2.83156 2.05725 0
      vertex -2.02254 1.46946 0
      vertex -2.28386 1.01684 0
    endloop
  endfacet
  facet normal 0 0 -1
    outer loop
      vertex -2.4329 2.5 0
      vertex -1.67283 1.85786 0
      vertex -2.02254 1.46946 0
    endloop
  endfacet
  facet normal 0 0 -1
    outer loop
      vertex -2.4329 2.5 0
      vertex -1.25 2.16506 0
      vertex -1.67283 1.85786 0
    endloop
  endfacet
  facet normal 0 0 -1
    outer loop
      vertex -2.5 3.5 0
      vertex -1.25 2.16506 0
      vertex -2.4329 2.5 0
    endloop
  endfacet
  facet normal 0 0 -1
    outer loop
      vertex -1.25 2.16506 0
      vertex -2.5 3.5 0
      vertex -0.772542 2.37764 0
    endloop
  endfacet
  facet normal 0 0 -1
    outer loop
      vertex -0.261321 2.4863 0
      vertex -2.5 3.5 0
      vertex 2.5 3.5 0
    endloop
  endfacet
  facet normal -0 0 -1
    outer loop
      vertex -2.5 3.5 0
      vertex -3.5 2.5 0
      vertex -2.5 8.5 0
    endloop
  endfacet
  facet normal 0 0 -1
    outer loop
      vertex -3.5 2.5 0
      vertex -2.5 3.5 0
      vertex -2.4329 2.5 0
    endloop
  endfacet
  facet normal 0 0 -1
    outer loop
      vertex 2.5 8.5 0
      vertex 3.5 9.5 0
      vertex 2.5 3.5 0
    endloop
  endfacet
  facet normal 0 0 -1
    outer loop
      vertex -2.5 8.5 0
      vertex 3.5 9.5 0
      vertex 2.5 8.5 0
    endloop
  endfacet
  facet normal 0 0 -1
    outer loop
      vertex -2.5 8.5 0
      vertex -3.5 9.5 0
      vertex 3.5 9.5 0
    endloop
  endfacet
  facet normal 0 0 -1
    outer loop
      vertex -3.5 9.5 0
      vertex -2.5 8.5 0
      vertex -3.5 2.5 0
    endloop
  endfacet
  facet normal 0 0 -1
    outer loop
      vertex -3.19741 1.42358 0
      vertex -2.28386 1.01684 0
      vertex -2.44537 0.519779 0
    endloop
  endfacet
  facet normal 0 0 -1
    outer loop
      vertex -3.42352 0.727691 0
      vertex -2.44537 0.519779 0
      vertex -2.5 0 0
    endloop
  endfacet
  facet normal 0 0 -1
    outer loop
      vertex -3.42352 -0.727691 0
      vertex -2.44537 -0.519779 0
      vertex -3.19741 -1.42358 0
    endloop
  endfacet
  facet normal -0 0 -1
    outer loop
      vertex -2.44537 -0.519779 0
      vertex -3.42352 -0.727691 0
      vertex -2.5 0 0
    endloop
  endfacet
  facet normal 0 0 -1
    outer loop
      vertex -2.28386 1.01684 0
      vertex -3.19741 1.42358 0
      vertex -2.83156 2.05725 0
    endloop
  endfacet
  facet normal 0 0 -1
    outer loop
      vertex -2.02254 1.46946 0
      vertex -2.83156 2.05725 0
      vertex -2.4329 2.5 0
    endloop
  endfacet
  facet normal 0 0 -1
    outer loop
      vertex -3.5 0 0
      vertex -2.5 0 0
      vertex -3.42352 -0.727691 0
    endloop
  endfacet
  facet normal 0 0 -1
    outer loop
      vertex -2.44537 0.519779 0
      vertex -3.42352 0.727691 0
      vertex -3.19741 1.42358 0
    endloop
  endfacet
  facet normal 0 0 -1
    outer loop
      vertex -2.5 0 0
      vertex -3.5 0 0
      vertex -3.42352 0.727691 0
    endloop
  endfacet
  facet normal 0.866026 -0.499999 0
    outer loop
      vertex 2.83156 -2.05725 20
      vertex 3.19741 -1.42358 0
      vertex 3.19741 -1.42358 20
    endloop
  endfacet
  facet normal 0.866026 -0.499999 0
    outer loop
      vertex 3.19741 -1.42358 0
      vertex 2.83156 -2.05725 20
      vertex 2.83156 -2.05725 0
    endloop
  endfacet
  facet normal -0.866026 -0.499999 0
    outer loop
      vertex -2.83156 -2.05725 0
      vertex -3.19741 -1.42358 20
      vertex -3.19741 -1.42358 0
    endloop
  endfacet
  facet normal -0.866026 -0.499999 0
    outer loop
      vertex -3.19741 -1.42358 20
      vertex -2.83156 -2.05725 0
      vertex -2.83156 -2.05725 20
    endloop
  endfacet
  facet normal -0.743145 -0.66913 0
    outer loop
      vertex -2.34196 -2.60101 0
      vertex -2.83156 -2.05725 20
      vertex -2.83156 -2.05725 0
    endloop
  endfacet
  facet normal -0.743145 -0.66913 0
    outer loop
      vertex -2.83156 -2.05725 20
      vertex -2.34196 -2.60101 0
      vertex -2.34196 -2.60101 20
    endloop
  endfacet
  facet normal 0.587786 -0.809017 0
    outer loop
      vertex 1.75 -3.03109 0
      vertex 2.34196 -2.60101 20
      vertex 1.75 -3.03109 20
    endloop
  endfacet
  facet normal 0.587786 -0.809017 0
    outer loop
      vertex 2.34196 -2.60101 20
      vertex 1.75 -3.03109 0
      vertex 2.34196 -2.60101 0
    endloop
  endfacet
  facet normal -0.207912 -0.978147 0
    outer loop
      vertex -1.08156 -3.3287 0
      vertex -0.365849 -3.48083 20
      vertex -1.08156 -3.3287 20
    endloop
  endfacet
  facet normal -0.207912 -0.978147 -0
    outer loop
      vertex -0.365849 -3.48083 20
      vertex -1.08156 -3.3287 0
      vertex -0.365849 -3.48083 0
    endloop
  endfacet
  facet normal -0.951056 -0.309017 0
    outer loop
      vertex -3.19741 -1.42358 0
      vertex -3.42352 -0.727691 20
      vertex -3.42352 -0.727691 0
    endloop
  endfacet
  facet normal -0.951056 -0.309017 0
    outer loop
      vertex -3.42352 -0.727691 20
      vertex -3.19741 -1.42358 0
      vertex -3.19741 -1.42358 20
    endloop
  endfacet
  facet normal -0.994522 -0.104529 0
    outer loop
      vertex -3.42352 -0.727691 0
      vertex -3.5 0 20
      vertex -3.5 0 0
    endloop
  endfacet
  facet normal -0.994522 -0.104529 0
    outer loop
      vertex -3.5 0 20
      vertex -3.42352 -0.727691 0
      vertex -3.42352 -0.727691 20
    endloop
  endfacet
  facet normal 0.406736 -0.913546 0
    outer loop
      vertex 1.08156 -3.3287 0
      vertex 1.75 -3.03109 20
      vertex 1.08156 -3.3287 20
    endloop
  endfacet
  facet normal 0.406736 -0.913546 0
    outer loop
      vertex 1.75 -3.03109 20
      vertex 1.08156 -3.3287 0
      vertex 1.75 -3.03109 0
    endloop
  endfacet
  facet normal 0.207912 -0.978147 0
    outer loop
      vertex 0.365849 -3.48083 0
      vertex 1.08156 -3.3287 20
      vertex 0.365849 -3.48083 20
    endloop
  endfacet
  facet normal 0.207912 -0.978147 0
    outer loop
      vertex 1.08156 -3.3287 20
      vertex 0.365849 -3.48083 0
      vertex 1.08156 -3.3287 0
    endloop
  endfacet
  facet normal 0.743145 -0.66913 0
    outer loop
      vertex 2.34196 -2.60101 20
      vertex 2.83156 -2.05725 0
      vertex 2.83156 -2.05725 20
    endloop
  endfacet
  facet normal 0.743145 -0.66913 0
    outer loop
      vertex 2.83156 -2.05725 0
      vertex 2.34196 -2.60101 20
      vertex 2.34196 -2.60101 0
    endloop
  endfacet
  facet normal -0.406736 -0.913546 0
    outer loop
      vertex -1.75 -3.03109 0
      vertex -1.08156 -3.3287 20
      vertex -1.75 -3.03109 20
    endloop
  endfacet
  facet normal -0.406736 -0.913546 -0
    outer loop
      vertex -1.08156 -3.3287 20
      vertex -1.75 -3.03109 0
      vertex -1.08156 -3.3287 0
    endloop
  endfacet
  facet normal -0.587786 -0.809017 0
    outer loop
      vertex -2.34196 -2.60101 0
      vertex -1.75 -3.03109 20
      vertex -2.34196 -2.60101 20
    endloop
  endfacet
  facet normal -0.587786 -0.809017 -0
    outer loop
      vertex -1.75 -3.03109 20
      vertex -2.34196 -2.60101 0
      vertex -1.75 -3.03109 0
    endloop
  endfacet
  facet normal -0.994522 -0.104529 0
    outer loop
      vertex 2.5 0 0
      vertex 2.44537 0.519779 20
      vertex 2.44537 0.519779 0
    endloop
  endfacet
  facet normal -0.994522 -0.104529 0
    outer loop
      vertex 2.44537 0.519779 20
      vertex 2.5 0 0
      vertex 2.5 0 20
    endloop
  endfacet
  facet normal 0.994522 -0.104529 0
    outer loop
      vertex -2.5 0 20
      vertex -2.44537 0.519779 0
      vertex -2.44537 0.519779 20
    endloop
  endfacet
  facet normal 0.994522 -0.104529 0
    outer loop
      vertex -2.44537 0.519779 0
      vertex -2.5 0 20
      vertex -2.5 0 0
    endloop
  endfacet
  facet normal 0 -1 0
    outer loop
      vertex -0.261321 2.4863 0
      vertex 0.261321 2.4863 20
      vertex -0.261321 2.4863 20
    endloop
  endfacet
  facet normal 0 -1 -0
    outer loop
      vertex 0.261321 2.4863 20
      vertex -0.261321 2.4863 0
      vertex 0.261321 2.4863 0
    endloop
  endfacet
  facet normal 0 1 -0
    outer loop
      vertex 0.261321 -2.4863 0
      vertex -0.261321 -2.4863 20
      vertex 0.261321 -2.4863 20
    endloop
  endfacet
  facet normal 0 1 0
    outer loop
      vertex -0.261321 -2.4863 20
      vertex 0.261321 -2.4863 0
      vertex -0.261321 -2.4863 0
    endloop
  endfacet
  facet normal -0.587786 -0.809017 0
    outer loop
      vertex 1.25 2.16506 0
      vertex 1.67283 1.85786 20
      vertex 1.25 2.16506 20
    endloop
  endfacet
  facet normal -0.587786 -0.809017 -0
    outer loop
      vertex 1.67283 1.85786 20
      vertex 1.25 2.16506 0
      vertex 1.67283 1.85786 0
    endloop
  endfacet
  facet normal 0.587785 -0.809017 0
    outer loop
      vertex -1.67283 1.85786 0
      vertex -1.25 2.16506 20
      vertex -1.67283 1.85786 20
    endloop
  endfacet
  facet normal 0.587785 -0.809017 0
    outer loop
      vertex -1.25 2.16506 20
      vertex -1.67283 1.85786 0
      vertex -1.25 2.16506 0
    endloop
  endfacet
  facet normal 0.207912 -0.978148 0
    outer loop
      vertex -0.772542 2.37764 0
      vertex -0.261321 2.4863 20
      vertex -0.772542 2.37764 20
    endloop
  endfacet
  facet normal 0.207912 -0.978148 0
    outer loop
      vertex -0.261321 2.4863 20
      vertex -0.772542 2.37764 0
      vertex -0.261321 2.4863 0
    endloop
  endfacet
  facet normal -0.866025 -0.5 0
    outer loop
      vertex 2.28386 1.01684 0
      vertex 2.02254 1.46946 20
      vertex 2.02254 1.46946 0
    endloop
  endfacet
  facet normal -0.866025 -0.5 0
    outer loop
      vertex 2.02254 1.46946 20
      vertex 2.28386 1.01684 0
      vertex 2.28386 1.01684 20
    endloop
  endfacet
  facet normal -0.951056 -0.309018 0
    outer loop
      vertex 2.44537 0.519779 0
      vertex 2.28386 1.01684 20
      vertex 2.28386 1.01684 0
    endloop
  endfacet
  facet normal -0.951056 -0.309018 0
    outer loop
      vertex 2.28386 1.01684 20
      vertex 2.44537 0.519779 0
      vertex 2.44537 0.519779 20
    endloop
  endfacet
  facet normal -0.743145 -0.669131 0
    outer loop
      vertex 2.02254 1.46946 0
      vertex 1.67283 1.85786 20
      vertex 1.67283 1.85786 0
    endloop
  endfacet
  facet normal -0.743145 -0.669131 0
    outer loop
      vertex 1.67283 1.85786 20
      vertex 2.02254 1.46946 0
      vertex 2.02254 1.46946 20
    endloop
  endfacet
  facet normal -0.207912 -0.978148 0
    outer loop
      vertex 0.261321 2.4863 0
      vertex 0.772542 2.37764 20
      vertex 0.261321 2.4863 20
    endloop
  endfacet
  facet normal -0.207912 -0.978148 -0
    outer loop
      vertex 0.772542 2.37764 20
      vertex 0.261321 2.4863 0
      vertex 0.772542 2.37764 0
    endloop
  endfacet
  facet normal -0.406736 -0.913546 0
    outer loop
      vertex 0.772542 2.37764 0
      vertex 1.25 2.16506 20
      vertex 0.772542 2.37764 20
    endloop
  endfacet
  facet normal -0.406736 -0.913546 -0
    outer loop
      vertex 1.25 2.16506 20
      vertex 0.772542 2.37764 0
      vertex 1.25 2.16506 0
    endloop
  endfacet
  facet normal 0.866025 -0.5 0
    outer loop
      vertex -2.28386 1.01684 20
      vertex -2.02254 1.46946 0
      vertex -2.02254 1.46946 20
    endloop
  endfacet
  facet normal 0.866025 -0.5 0
    outer loop
      vertex -2.02254 1.46946 0
      vertex -2.28386 1.01684 20
      vertex -2.28386 1.01684 0
    endloop
  endfacet
  facet normal 0.743145 -0.669131 0
    outer loop
      vertex -2.02254 1.46946 20
      vertex -1.67283 1.85786 0
      vertex -1.67283 1.85786 20
    endloop
  endfacet
  facet normal 0.743145 -0.669131 0
    outer loop
      vertex -1.67283 1.85786 0
      vertex -2.02254 1.46946 20
      vertex -2.02254 1.46946 0
    endloop
  endfacet
  facet normal 0.951056 -0.309018 0
    outer loop
      vertex -2.44537 0.519779 20
      vertex -2.28386 1.01684 0
      vertex -2.28386 1.01684 20
    endloop
  endfacet
  facet normal 0.951056 -0.309018 0
    outer loop
      vertex -2.28386 1.01684 0
      vertex -2.44537 0.519779 20
      vertex -2.44537 0.519779 0
    endloop
  endfacet
  facet normal 0.406737 -0.913545 0
    outer loop
      vertex -1.25 2.16506 0
      vertex -0.772542 2.37764 20
      vertex -1.25 2.16506 20
    endloop
  endfacet
  facet normal 0.406737 -0.913545 0
    outer loop
      vertex -0.772542 2.37764 20
      vertex -1.25 2.16506 0
      vertex -0.772542 2.37764 0
    endloop
  endfacet
  facet normal -0.994522 0.104529 0
    outer loop
      vertex 2.44537 -0.519779 0
      vertex 2.5 0 20
      vertex 2.5 0 0
    endloop
  endfacet
  facet normal -0.994522 0.104529 0
    outer loop
      vertex 2.5 0 20
      vertex 2.44537 -0.519779 0
      vertex 2.44537 -0.519779 20
    endloop
  endfacet
  facet normal -0.866025 0.5 0
    outer loop
      vertex 2.02254 -1.46946 0
      vertex 2.28386 -1.01684 20
      vertex 2.28386 -1.01684 0
    endloop
  endfacet
  facet normal -0.866025 0.5 0
    outer loop
      vertex 2.28386 -1.01684 20
      vertex 2.02254 -1.46946 0
      vertex 2.02254 -1.46946 20
    endloop
  endfacet
  facet normal 0.866025 0.5 0
    outer loop
      vertex -2.02254 -1.46946 20
      vertex -2.28386 -1.01684 0
      vertex -2.28386 -1.01684 20
    endloop
  endfacet
  facet normal 0.866025 0.5 0
    outer loop
      vertex -2.28386 -1.01684 0
      vertex -2.02254 -1.46946 20
      vertex -2.02254 -1.46946 0
    endloop
  endfacet
  facet normal 0.743145 0.669131 0
    outer loop
      vertex -1.67283 -1.85786 20
      vertex -2.02254 -1.46946 0
      vertex -2.02254 -1.46946 20
    endloop
  endfacet
  facet normal 0.743145 0.669131 0
    outer loop
      vertex -2.02254 -1.46946 0
      vertex -1.67283 -1.85786 20
      vertex -1.67283 -1.85786 0
    endloop
  endfacet
  facet normal 0.994522 0.104529 0
    outer loop
      vertex -2.44537 -0.519779 20
      vertex -2.5 0 0
      vertex -2.5 0 20
    endloop
  endfacet
  facet normal 0.994522 0.104529 0
    outer loop
      vertex -2.5 0 0
      vertex -2.44537 -0.519779 20
      vertex -2.44537 -0.519779 0
    endloop
  endfacet
  facet normal -0.587786 0.809017 0
    outer loop
      vertex 1.67283 -1.85786 0
      vertex 1.25 -2.16506 20
      vertex 1.67283 -1.85786 20
    endloop
  endfacet
  facet normal -0.587786 0.809017 0
    outer loop
      vertex 1.25 -2.16506 20
      vertex 1.67283 -1.85786 0
      vertex 1.25 -2.16506 0
    endloop
  endfacet
  facet normal -0.951056 0.309018 0
    outer loop
      vertex 2.28386 -1.01684 0
      vertex 2.44537 -0.519779 20
      vertex 2.44537 -0.519779 0
    endloop
  endfacet
  facet normal -0.951056 0.309018 0
    outer loop
      vertex 2.44537 -0.519779 20
      vertex 2.28386 -1.01684 0
      vertex 2.28386 -1.01684 20
    endloop
  endfacet
  facet normal 0.951056 0.309018 0
    outer loop
      vertex -2.28386 -1.01684 20
      vertex -2.44537 -0.519779 0
      vertex -2.44537 -0.519779 20
    endloop
  endfacet
  facet normal 0.951056 0.309018 0
    outer loop
      vertex -2.44537 -0.519779 0
      vertex -2.28386 -1.01684 20
      vertex -2.28386 -1.01684 0
    endloop
  endfacet
  facet normal -0.406736 0.913546 0
    outer loop
      vertex 1.25 -2.16506 0
      vertex 0.772542 -2.37764 20
      vertex 1.25 -2.16506 20
    endloop
  endfacet
  facet normal -0.406736 0.913546 0
    outer loop
      vertex 0.772542 -2.37764 20
      vertex 1.25 -2.16506 0
      vertex 0.772542 -2.37764 0
    endloop
  endfacet
  facet normal -0.207912 0.978148 0
    outer loop
      vertex 0.772542 -2.37764 0
      vertex 0.261321 -2.4863 20
      vertex 0.772542 -2.37764 20
    endloop
  endfacet
  facet normal -0.207912 0.978148 0
    outer loop
      vertex 0.261321 -2.4863 20
      vertex 0.772542 -2.37764 0
      vertex 0.261321 -2.4863 0
    endloop
  endfacet
  facet normal -0.743145 0.669131 0
    outer loop
      vertex 1.67283 -1.85786 0
      vertex 2.02254 -1.46946 20
      vertex 2.02254 -1.46946 0
    endloop
  endfacet
  facet normal -0.743145 0.669131 0
    outer loop
      vertex 2.02254 -1.46946 20
      vertex 1.67283 -1.85786 0
      vertex 1.67283 -1.85786 20
    endloop
  endfacet
  facet normal 0.406736 0.913546 -0
    outer loop
      vertex -0.772542 -2.37764 0
      vertex -1.25 -2.16506 20
      vertex -0.772542 -2.37764 20
    endloop
  endfacet
  facet normal 0.406736 0.913546 0
    outer loop
      vertex -1.25 -2.16506 20
      vertex -0.772542 -2.37764 0
      vertex -1.25 -2.16506 0
    endloop
  endfacet
  facet normal 0.587786 0.809017 -0
    outer loop
      vertex -1.25 -2.16506 0
      vertex -1.67283 -1.85786 20
      vertex -1.25 -2.16506 20
    endloop
  endfacet
  facet normal 0.587786 0.809017 0
    outer loop
      vertex -1.67283 -1.85786 20
      vertex -1.25 -2.16506 0
      vertex -1.67283 -1.85786 0
    endloop
  endfacet
  facet normal 0.207912 0.978148 -0
    outer loop
      vertex -0.261321 -2.4863 0
      vertex -0.772542 -2.37764 20
      vertex -0.261321 -2.4863 20
    endloop
  endfacet
  facet normal 0.207912 0.978148 0
    outer loop
      vertex -0.772542 -2.37764 20
      vertex -0.261321 -2.4863 0
      vertex -0.772542 -2.37764 0
    endloop
  endfacet
  facet normal -1 0 0
    outer loop
      vertex -3.5 2.5 0
      vertex -3.5 9.5 20
      vertex -3.5 9.5 0
    endloop
  endfacet
  facet normal -1 -0 0
    outer loop
      vertex -3.5 9.5 20
      vertex -3.5 2.5 0
      vertex -3.5 2.5 20
    endloop
  endfacet
  facet normal 1 -0 0
    outer loop
      vertex 3.5 2.5 20
      vertex 3.5 9.5 0
      vertex 3.5 9.5 20
    endloop
  endfacet
  facet normal 1 0 0
    outer loop
      vertex 3.5 9.5 0
      vertex 3.5 2.5 20
      vertex 3.5 2.5 0
    endloop
  endfacet
  facet normal 0 1 -0
    outer loop
      vertex 3.5 9.5 0
      vertex -3.5 9.5 20
      vertex 3.5 9.5 20
    endloop
  endfacet
  facet normal 0 1 0
    outer loop
      vertex -3.5 9.5 20
      vertex 3.5 9.5 0
      vertex -3.5 9.5 0
    endloop
  endfacet
  facet normal 0 -1 0
    outer loop
      vertex -3.5 2.5 0
      vertex -2.4329 2.5 20
      vertex -3.5 2.5 20
    endloop
  endfacet
  facet normal 0 -1 -0
    outer loop
      vertex -2.4329 2.5 20
      vertex -3.5 2.5 0
      vertex -2.4329 2.5 0
    endloop
  endfacet
  facet normal 0 -1 0
    outer loop
      vertex 2.4329 2.5 0
      vertex 3.5 2.5 20
      vertex 2.4329 2.5 20
    endloop
  endfacet
  facet normal 0 -1 -0
    outer loop
      vertex 3.5 2.5 20
      vertex 2.4329 2.5 0
      vertex 3.5 2.5 0
    endloop
  endfacet
  facet normal 1 -0 0
    outer loop
      vertex -2.5 3.5 20
      vertex -2.5 8.5 0
      vertex -2.5 8.5 20
    endloop
  endfacet
  facet normal 1 0 0
    outer loop
      vertex -2.5 8.5 0
      vertex -2.5 3.5 20
      vertex -2.5 3.5 0
    endloop
  endfacet
  facet normal -1 0 0
    outer loop
      vertex 2.5 3.5 0
      vertex 2.5 8.5 20
      vertex 2.5 8.5 0
    endloop
  endfacet
  facet normal -1 -0 0
    outer loop
      vertex 2.5 8.5 20
      vertex 2.5 3.5 0
      vertex 2.5 3.5 20
    endloop
  endfacet
  facet normal 0 -1 0
    outer loop
      vertex -2.5 8.5 0
      vertex 2.5 8.5 20
      vertex -2.5 8.5 20
    endloop
  endfacet
  facet normal 0 -1 -0
    outer loop
      vertex 2.5 8.5 20
      vertex -2.5 8.5 0
      vertex 2.5 8.5 0
    endloop
  endfacet
  facet normal 0 1 -0
    outer loop
      vertex 2.5 3.5 0
      vertex -2.5 3.5 20
      vertex 2.5 3.5 20
    endloop
  endfacet
  facet normal 0 1 0
    outer loop
      vertex -2.5 3.5 20
      vertex 2.5 3.5 0
      vertex -2.5 3.5 0
    endloop
  endfacet
endsolid OpenSCAD_Model
