<?xml version="1.0" standalone="no"?>
<!DOCTYPE svg PUBLIC "-//W3C//DTD SVG 20010904//EN"
 "http://www.w3.org/TR/2001/REC-SVG-20010904/DTD/svg10.dtd">
<svg version="1.0" xmlns="http://www.w3.org/2000/svg"
 width="512.000000pt" height="512.000000pt" viewBox="0 0 512.000000 512.000000"
 preserveAspectRatio="xMidYMid meet">
<metadata>
Created by potrace 1.14, written by Peter Selinger 2001-2017
</metadata>
<g transform="translate(0.000000,512.000000) scale(0.100000,-0.100000)"
fill="#000000" stroke="none">
<path d="M115 4718 c-58 -33 -59 -82 -3 -168 92 -142 154 -298 178 -453 19
-118 8 -319 -25 -437 -32 -120 -117 -293 -190 -389 -101 -132 -99 -143 39
-250 323 -251 531 -605 586 -1001 6 -41 11 -147 11 -234 -1 -181 5 -199 66
-215 21 -5 77 -12 124 -15 263 -20 589 -130 836 -284 307 -190 569 -478 737
-811 30 -59 70 -80 115 -61 23 9 44 38 91 124 201 364 490 647 850 830 234
119 467 184 764 211 55 6 74 12 94 32 24 24 25 27 18 126 -15 248 44 538 157
764 104 206 272 408 449 541 91 68 115 103 98 145 -5 12 -35 57 -68 100 -104
138 -185 327 -212 499 -19 119 -8 331 23 443 32 113 80 219 146 322 62 97 65
129 19 168 -37 31 -64 30 -238 -11 -292 -69 -549 -239 -729 -483 -68 -92 -147
-246 -182 -353 l-22 -68 37 -87 c61 -148 71 -200 71 -368 0 -155 -8 -202 -54
-326 -30 -79 -88 -171 -145 -229 -212 -216 -591 -112 -675 185 -6 22 -18 96
-25 165 -13 114 -17 127 -41 147 -36 31 -77 29 -117 -6 -196 -171 -465 -176
-662 -12 -56 47 -92 52 -131 18 -24 -20 -28 -34 -45 -170 -22 -174 -44 -231
-121 -312 -92 -97 -232 -146 -360 -126 -130 21 -232 97 -304 226 -79 141 -115
279 -115 441 0 130 20 230 71 358 l40 99 -22 66 c-88 266 -269 503 -499 656
-143 94 -334 170 -505 199 -106 19 -104 19 -130 4z m2254 -1993 c38 -19 54
-63 49 -130 -5 -58 -25 -90 -67 -106 -35 -14 -88 7 -106 41 -20 39 -20 139 1
168 28 41 77 52 123 27z m499 -20 c17 -21 22 -38 22 -86 0 -75 -19 -114 -63
-128 -39 -13 -72 -4 -101 28 -24 27 -33 119 -16 161 26 63 113 76 158 25z"/>
</g>
</svg>
